<svg xmlns="http://www.w3.org/2000/svg" viewBox="0 0 1601.19 1015.64"><defs><style>.cls-1{fill:#ffd489;isolation:isolate;opacity:.7}</style></defs><g id="Calque_2" data-name="Calque 2"><g id="Calque_2-2" data-name="Calque 2"><path class="cls-1" d="M1064.81 124.22c28.32 79.73 64.36 143.63 106.51 196.13 28.35 35.28 56.12 72.29 84 108.75 5.89 7.69 11.78 15.61 17.25 24.36 22.81 36.43 39.31 82 52.63 132.2a252 252 0 018.89 57.43 10.06 10.06 0 003.51.69c5.57 0 9-5.75 11.63-13.72.93-2.75.93-7.91.25-11-1.56-7.21-3.69-13.93-5.81-20.65-.3-.93-.59-1.87-.89-2.81a21.94 21.94 0 003.49 3.18c1.27 1 2.62 2.06 3.52 2.76l1 .78a30.19 30.19 0 006.09 4.18 37.1 37.1 0 014.2 2.6c5.63 3.52 12.53 6.93 19.23 10.23 4.84 2.39 9.42 4.64 13.56 7 14.83 7 27.19 12.09 44.85 18.95 3.23.93 6.36 2 9.53 3 4 1.35 8.12 2.73 12.59 3.9 5.16 10.79 9.47 18.8 12.19 23.65 3.67 6.53 7.83 13.94 13.17 18.41l.44.36.38-.59c.26-.41.54-.79.82-1.16a9 9 0 001.84-3.55 149.64 149.64 0 002.84-15.72c.85-7.36.13-10-3.65-13.75-2.62-2.61-7.36-9.84-13.73-20.92a22.38 22.38 0 010-3.84c2.17-23.1 4.17-45.61 5.86-64.58.48-5.47 1-11 1.4-16.46.83-9.69 1.67-19.71 2.64-29.5 1.37-13.6 2.88-27.4 4.32-40.76q1.29-11.71 2.53-23.46l.13-1.17c.34-3.21.67-6.53.89-9.83.18-2.84.39-6.55.3-10.26 0-.59.13-2.39.26-4 .34-4 .53-6.54.26-7.9l-.56-2.81-.83 2.57c-1.45 4.54-2.28 7.35-4.16 15.24-.26 1.1-.59 2.4-.93 3.8-.71 2.82-1.51 6.05-2 8.42-2.52 12.57-4.88 23.22-7.18 33.52-2.85 12.79-5.53 24.88-8.45 40.18-2 10.38-3.35 16.84-4.49 22.51-1.72 8.5-3.09 15.2-6 30.82-.18 1.44-2.56 14.82-3.6 20.27-3.8-7.76-7.06-14.83-9.5-20.56A147.86 147.86 0 011441 566c-.63-2.11-1.26-4.2-1.92-6.27-1.4-4.42-2.79-9.09-4.23-14.26-.84-3-2-8.38-1.8-10.24.19-1.68 1.09-5.46 4.39-14.22 8.59-23.22 18.59-50.21 28.51-76.72 1-2.76 2.11-5.44 3.2-8.11 1.47-3.64 3-7.4 4.35-11.3 3.62-10.29 7-20.72 10.66-32.27l.21-.61c8.21-23.34 8.16-24.51 8.13-25.3v-1.46l-.56.12a1.47 1.47 0 00-.47-1c-.4-.33-.79.05-1 .2-.64.64-3.39 6.36-9.31 18.94-1.67 3.55-3.24 6.91-3.5 7.37q-14.88 27.45-29.68 54.94-5.93 11.08-11.84 22.22c-3.65 6.86-7.3 13.74-11 20.56a27.2 27.2 0 01-2.1 3.1l-1 1.3c-.71-3.26-1.41-6.44-2.11-9.56-2.5-11.16-4.86-21.73-6.3-32.85-.42-3.35-.82-7.07-1.17-11.07a14.44 14.44 0 011.66-8.93c1.68-2.8 3.3-5.74 4.92-8.67a161 161 0 019-14.93c12.13-16.95 23-37 33.6-56.42 1.91-3.52 3.83-7.05 5.76-10.55 2.13-3.87 4.17-8 6.15-12 2.51-5.07 5.11-10.33 7.9-15.06a115.94 115.94 0 006.92-15c.87-2.16 1.74-4.3 2.66-6.41.1-.24.77-1.61 1.7-3.53 7.71-15.94 7.7-16.19 7.66-17.11a10.56 10.56 0 00-.75-4.3l-.24-.32c-.62-.5-.84-.67-11.32 15.05-1.24 1.85-2.14 3.21-2.31 3.43l-2.63 3.35c-3.52 4.46-7.15 9.06-10.64 13.86-3.58 5-7.12 10-10.67 15.1-5.27 7.52-10.71 15.28-16.19 22.59-9.85 13.12-20 26-29.85 38.55l-6.33 8.05c-.16-5 .17-21 1.5-53.75a13.66 13.66 0 013.33-8.86q3.84-4.43 7.72-8.83t7.73-8.84q5.33-6.1 10.66-12.19c8.14-9.29 16.54-18.88 24.74-28.57 5-5.9 10-12.1 14.76-18.12 3.48-4.33 7-8.68 10.48-12.95a61.32 61.32 0 014.36-4.76c1.06-1.09 2.12-2.17 3.15-3.31a6 6 0 001.52-3.4 10.35 10.35 0 00-.6-4.58l-.33-1-.58.4c-.62.41-1.27.77-1.93 1.14a23.89 23.89 0 00-2.88 1.8 27.73 27.73 0 00-2.76 2.43 29 29 0 01-2.66 2.3c-4.81 3.35-9.63 6.64-14.45 9.93s-9.66 6.56-14.47 9.93c-3.47 2.43-6.92 4.95-10.36 7.48-4 3-8.08 5.91-12.14 8.72-1.26.88-2.74 1.95-4.33 3.09-4.86 3.5-13.67 9.88-15.71 9.6 2-16.53 4-31.64 6-46.2l.08-.61c.34-2.51.34-2.51.45-3s.25-1.13.64-3.23c.73-4 .73-4 3.42-5.87.58-.39 1.25-.86 2.15-1.52 8.3-8.17 20.32-19.88 28.86-27.22 5.87-5 11.67-10.81 17.27-16.4q9.46-9.77 19.86-18.55c.35-.29 1.51-1.61 3.71-4.08 2.67-3 6-6.78 7.82-8.55a40.48 40.48 0 002.86-3.14c.39-.46.77-.92 1.2-1.41.18-.24.79-.87 1.63-1.74 7.8-8.18 10.67-12 11-14.4a3.65 3.65 0 00-.17-1.7l-.18-.48-.3-.1c-1.82-.66-8 3.77-15.4 9.17-1.79 1.32-3.2 2.36-3.79 2.7-1.93 1.15-3.86 2.47-5.73 3.74-1.26.84-2.52 1.71-3.78 2.52l-3.26 2.13c-3.48 2.29-7.08 4.65-10.68 6.65s-7.08 3.91-10.63 5.84c-9.38 5.07-19.08 10.31-28.39 17a19.67 19.67 0 01-5 2.62 1.31 1.31 0 01-.83 0c3.69-17.08 7.64-35.3 11.55-53 .4-1.41 2.1-3.51 5.64-4.84 1.77-1 3.36-1.91 4.86-2.78 5.08-2.92 9.09-5.22 15.09-8a36.79 36.79 0 018.88-5.09A256.18 256.18 0 001503.89 80c4.19-2.87 8.16-5.58 12.16-8.13 5.18-3.24 10.26-8 15.18-12.5 3.36-3.11 6.84-6.32 10.28-9 .87-.68 1.75-1.32 2.64-1.94a41.46 41.46 0 004.2-3.27 4.71 4.71 0 001.36-3.19 8 8 0 00-1.13-4.68l-.3-.51-.38.16c-4.26 1.71-8.72 3-13 4.32-1.49.44-3 .88-4.46 1.34-4.89 1.47-9.84 3.51-14.63 5.47s-9.53 3.92-14.3 5.39c-.76.23-1.52.44-2.28.66a48.46 48.46 0 00-7 2.38 89.09 89.09 0 01-9.05 3.31 84.37 84.37 0 00-10.45 4c-2.15 1.06-4.28 2.14-6.42 3.22s-4.34 2.22-6.52 3.27a13.61 13.61 0 01-1.59.65c2.62-8.84 4.72-15.81 7.11-23.71l3-10a8.17 8.17 0 013.73-5.12c6.41-3.87 12.23-7.52 17.8-11.17a60.33 60.33 0 005-4c.8-.67 1.58-1.34 2.38-2 1.08-.87 2.16-1.76 3.24-2.65 2.54-2.09 5.18-4.27 7.83-6.15 3-2.11 6-4.15 9-6.19h-53.69c-.08 3.43-.2 6.85-.31 10.2S1463 17 1463 20.47a59.84 59.84 0 01-2.48 16.17c-2.19 6.91-4.71 15.29-6.55 21.41-.86 2.85-1.6 5.32-2.12 7-.44-1.28-.84-2.5-1.24-3.67-1.18-3.52-2.2-6.57-3.61-10.2-2.31-6-4.67-12-7-18-3.58-9.11-7.3-18.52-10.77-27.95-.65-1.75-1.32-3.49-2-5.21H1415q1.75 7.35 3.53 14.69c2.06 8.52 4.12 17 6.11 25.63s4 17.36 5.92 26.07c2.55 11.34 5.17 23.07 7.9 34.51a28 28 0 01.14 13.35q-1.75 8.23-3.49 16.49c-2 9.44-4 18.88-6 28.3a17.8 17.8 0 01-.82 3.13 1.54 1.54 0 01-.33-.44c-2.07-3.36-4.07-7.32-5.69-10.5a5669.4 5669.4 0 01-17.1-34c-2.49-5-4.94-10-7.41-15l-4-8.12c-.56-1.16-1.13-2.33-1.68-3.48l-1.47-3c-2.14-4.25-4.33-8.42-6.52-12.6-5.88-11.19-12-22.74-16.82-36-.27-.71-1-2.84-1.8-5.29-1.85-5.46-3.18-9.41-3.65-10.39l-.15-.34-.22-.12c-1.42-.71-2.42-.4-3 1-1.3 3.09.45 9.93 2.36 16.67.26.94.47 1.66.55 2.05 1.14 5 2.52 10 4.1 14.74q5.68 17.28 11.45 34.49 3.2 9.55 6.39 19.17 2.38 7.16 4.76 14.34c3 9 6.08 18.37 9.2 27.48 1.64 4.81 3.38 9.59 5.06 14.24 2.3 6.3 4.67 12.84 6.81 19.48 2.89 8.94 5.38 16.42 8.78 23.76-.35 1.85-.72 3.72-1.1 5.56-1 4.89-2 9.94-2.73 15.08-1.78 12.43-3 21.85-4.45 32.75l-1.3 9.88s-.5.57-3-1.43q-2.74-2.36-5.25-5c-1-1-2-2-2.83-2.79q-6.09-5.79-12.18-11.7l-6.32-6.08c-2.33-2.27-4.68-4.5-7-6.74q-6.93-6.6-13.82-13.3c-2-1.91-3.9-3.89-5.85-5.86-3.52-3.57-7.15-7.26-10.86-10.45a102.45 102.45 0 01-13.82-14.8c-.28-.35-.55-.74-.83-1.14a11 11 0 00-1.87-2.27l-.24-.18c-.32-.26-1.75-2.3-3-4.1-2.33-3.3-5-7.05-6.21-8.05-.32-.25-.73-.51-1.12-.15-.7.59-1.09 1.94-1.51 3.36-.21.74-.44 1.54-.74 2.31l-.44 1.13.57.89c1.26 1.94 4.14 6.8 6.92 11.53 2.92 4.92 5.67 9.59 6.8 11.31l3.58 5.34c2.61 3.88 5.31 7.89 7.89 12s5.1 8.41 7.64 12.65c3.75 6.29 7.63 12.78 11.57 18.94 2.25 3.52 4.66 6.75 7 9.88 2.16 2.88 4.37 5.85 6.43 9l3.16 5.1c7.94 12.36 16.17 25.13 25 35.91.63.79 1.23 1.67 1.83 2.57s1.25 1.87 1.91 2.7c1.57 2 2.25 4.6 2.19 8.4-.09 4.06-.36 8.29-.61 12.38-.27 4.4-.56 8.92-.64 13.32-.07 4-.36 7.87-.64 11.64s-.56 7.62-.64 11.64v3.43c0 1.37 0 2.78-.08 3.52a.12.12 0 01-.07-.05l-.36-.3a503.69 503.69 0 00-7.9-5.07c-5.4-3.42-10.07-6.36-16.5-11.2-6-4.5-11.83-9.44-17.68-14.4-4.52-3.81-9-7.62-13.59-11.23l-2-1.63a141.87 141.87 0 01-20-19.1 26.84 26.84 0 00-3.39-3.52c-.32-.25-.64-.48-1.11-.81-.74-.59-2.94-2.71-5.49-5.16-3.75-3.64-8.44-8.16-10.84-10.1-1.13-.92-1.53-1.08-1.82-1.05-.56.05-1 .71-1.53 1.55-.2.31-.42.66-.69 1l-.77 1.08.72 1.2c1.07 1.78 8.18 10.46 15.7 19.57 1.32 1.58 2.26 2.73 2.58 3.11 4.37 5.31 8.87 10.53 13.23 15.6l2.72 3.16c1 1.13 2 2.19 2.94 3.27 1.3 1.41 2.66 2.87 3.93 4.46l23.36 29.28q19.27 24.25 38.62 48.3a19.15 19.15 0 014.12 9.7c1 6.61 2.18 13.29 3.28 19.75 1 5.5 1.9 11 2.79 16.54.63 3.79.86 5.77 1.18 8.51.09.75.18 1.55.29 2.45-1.85.14-1.9.11-2.68-.25l-.59-.27q-7.62-3.43-15.23-6.89l-10.17-4.61c-1.73-.8-3.48-1.57-5.23-2.34-3.61-1.59-7.35-3.23-10.95-5.19-5.51-3-11.07-6.32-16.46-9.52-3.24-1.92-6.48-3.85-9.74-5.72-2.9-1.7-17.44-10-18.91-7.25a3 3 0 00-.23 1.83l.1.67.33.26c.57.47 14.82 11.66 15.7 12.34 1.8 1.41 3.62 2.74 5.44 4a102.62 102.62 0 0110.56 8.51 665 665 0 0050 45q3.18 2.57 6.39 5.08l.28.23c.66.53 1.31 1.12 2 1.71a25.81 25.81 0 003.29 2.7c.64.42 1.25.78 1.84 1.15a21.23 21.23 0 012.46 1.61c1.75 1.43 2.69 3.26 3.23 6.36 1.24 6.94 2.87 13.7 4.16 18.8s2.68 10.42 4 15.46c.85 3.18 1.7 6.37 2.56 9.7 2.4 7.47 5.06 15.12 8.1 23.27a71.54 71.54 0 01-11-1.18c-3.55-.73-7.21-1.13-10.75-1.51-3.24-.36-6.58-.71-9.83-1.33-7.36-1.41-15.34-3.07-24.39-5.07-.56-.12-1.9-.33-3.43-.56a55.19 55.19 0 01-6.86-1.27c-13-2.63-20.89-4.21-23.47-5.34-.11-.07-10.57-3-11.15-.46 0 .15-.05.31-.07.47-15.68-49.56-31.93-98.52-46.82-149-15.12-51-28.7-103.76-43.19-155.48-8.44-30.15-17.54-59.6-29-86.18-7.54-17.36-14.25-36-22.21-52.61-21.54-44.77-45.2-85.54-72.75-116.54C1117 21.21 1105 10.49 1093 0h-84.25c8.59 16.79 17.12 33.69 25.47 50.91a711.66 711.66 0 0130.59 73.31zm50.19 66.93c24.62 26.62 44.5 64.9 66.37 98.28 4.83 7.34 11 13.81 14.15 30.83-31.25-37.58-59.08-75.91-80.52-129.11zM1138.65 80c9.7 15.18 20.09 29.27 29.08 46.2a927.75 927.75 0 0154.18 123.13c4.84 13.54 9.81 26.92 15.16 41.61-19.46-33.73-33.68-74.28-50.48-110.45-6.42-13.84-13-27.39-20-40.39-9.07-17.07-18.54-33.38-27.71-50.17-1.17-2.31-3.61-4.99-.23-9.93zm-32.35 8.2c24.73 31.69 45.87 71.71 68.34 108.46 13.23 21.62 25.21 45.63 36.5 70.93 9.63 21.48 19.77 42.22 29.54 63.45 1 2.06 3.25 4.93.15 9.75-4.12-7.15-8.21-14.2-12.22-21.45s-8-15.17-12.16-22.33q-29.23-49.6-58.44-99.26c-2.69-4.49-5.24-9.32-7.81-14.09-8.52-15.52-17.08-31-25.49-46.64-10-18.66-21-35.73-28.61-58.71 3.42 3.21 7.06 5.85 10.2 9.89zM1095.64 77c.14.46.31.88.46 1.33l-.48-.44c.32-.29-2-.83.02-.89zM127.05 40.32c2 8.66 4 17.36 5.93 26.07 2.54 11.35 5.17 23.08 7.9 34.51a28 28 0 01.13 13.35q-1.74 8.25-3.48 16.49c-2 9.44-4 18.88-6 28.3a16.76 16.76 0 01-.82 3.13 1.43 1.43 0 01-.32-.44c-2.08-3.35-4.08-7.31-5.7-10.49-5.72-11.31-11.41-22.59-17.09-34-2.49-5-4.95-10-7.41-15l-4-8.12c-.57-1.16-1.14-2.32-1.69-3.48s-1-2-1.47-3c-2.14-4.25-4.33-8.41-6.52-12.6-5.88-11.19-12-22.74-16.82-36-.26-.72-1-2.85-1.8-5.3-1.84-5.45-3.17-9.41-3.64-10.38L64.1 23l-.22-.12c-1.42-.72-2.43-.4-3 1-1.3 3.09.44 9.93 2.35 16.67.27.94.47 1.67.55 2.06 1.14 5 2.52 10 4.1 14.73q5.7 17.28 11.45 34.49 3.21 9.57 6.39 19.18 2.39 7.16 4.76 14.33c3 9 6.09 18.37 9.2 27.48 1.64 4.81 3.38 9.6 5.06 14.24 2.3 6.3 4.68 12.85 6.82 19.48 2.89 8.95 5.38 16.43 8.77 23.76-.35 1.86-.72 3.72-1.09 5.57-1 4.88-2 9.93-2.73 15.07-1.78 12.43-3 21.85-4.45 32.75l-1.3 9.89s-.51.56-3-1.44q-2.74-2.36-5.24-5c-1-1-2-2-2.83-2.79q-6.09-5.81-12.18-11.71l-6.33-6.08q-3.5-3.39-7-6.74c-4.61-4.4-9.22-8.81-13.81-13.3-2-1.91-3.91-3.89-5.85-5.85-3.52-3.58-7.16-7.27-10.87-10.46a102.42 102.42 0 01-13.81-14.8c-.29-.35-.56-.74-.83-1.14a11.31 11.31 0 00-1.89-2.27l-.24-.18c-.32-.25-1.76-2.3-3-4.1-2.33-3.3-5-7-6.22-8-.31-.26-.72-.51-1.11-.16-.7.6-1.09 1.94-1.51 3.37-.21.78-.46 1.55-.74 2.3l-.44 1.14.57.89c1.26 1.93 4.14 6.8 6.92 11.52 2.92 4.93 5.67 9.59 6.8 11.31l3.58 5.34c2.61 3.89 5.31 7.9 7.89 12.05s5.1 8.41 7.64 12.64c3.74 6.25 7.6 12.74 11.54 18.88 2.25 3.52 4.66 6.75 7 9.88 2.15 2.88 4.37 5.85 6.43 9l3.25 5.12c7.94 12.36 16.16 25.13 25 35.91.63.79 1.23 1.67 1.83 2.57s1.25 1.87 1.91 2.7c1.57 2 2.25 4.6 2.19 8.4-.09 4.05-.36 8.29-.61 12.38-.27 4.4-.56 8.92-.64 13.32-.07 4-.36 7.87-.64 11.64s-.57 7.62-.64 11.64v3.43c0 1.37 0 2.78-.08 3.52a.18.18 0 01-.07-.05l-.36-.3c-2.92-1.92-5.49-3.55-7.9-5.07-5.4-3.42-10.08-6.36-16.5-11.2-6-4.5-11.83-9.44-17.68-14.4-4.52-3.81-9-7.62-13.6-11.23l-2-1.63a141.94 141.94 0 01-20-19.1 26.71 26.71 0 00-3.44-3.53c-.32-.26-.64-.49-1.12-.81-.74-.6-2.93-2.72-5.48-5.17-3.76-3.64-8.44-8.16-10.84-10.1-1.14-.92-1.53-1.08-1.81-1.05-.55.05-1 .72-1.52 1.55-.2.32-.43.66-.69 1L0 308.53l.72 1.2c1.06 1.79 8.17 10.46 15.7 19.57 1.32 1.59 2.26 2.73 2.57 3.12 4.37 5.31 8.87 10.52 13.23 15.59l2.72 3.16c1 1.13 2 2.2 3 3.28 1.3 1.41 2.66 2.87 3.92 4.46l23.36 29.26q19.27 24.27 38.62 48.3a19.23 19.23 0 014.12 9.7c1 6.62 2.19 13.3 3.29 19.76 1 5.5 1.89 11 2.78 16.53.63 3.8.86 5.78 1.18 8.51.09.76.18 1.56.29 2.46-1.84.14-1.89.11-2.68-.26l-.58-.27q-7.68-3.42-15.24-6.9l-10.21-4.6c-1.73-.8-3.49-1.56-5.23-2.33-3.61-1.59-7.35-3.24-11-5.19-5.5-3-11.07-6.32-16.45-9.52-3.25-1.93-6.49-3.85-9.74-5.73-2.9-1.69-17.44-10-18.91-7.25a3 3 0 00-.24 1.83l.11.67.33.27c.57.46 14.82 11.65 15.7 12.34 1.8 1.41 3.62 2.73 5.44 4A99.25 99.25 0 0157.4 479a664.87 664.87 0 0050 45c2.13 1.72 4.25 3.4 6.39 5.09l.29.22c.65.53 1.3 1.13 1.95 1.71a25 25 0 003.29 2.7c.65.43 1.25.79 1.85 1.16a20.68 20.68 0 012.45 1.61c1.76 1.42 2.69 3.25 3.24 6.35 1.23 6.94 2.87 13.7 4.15 18.8s2.68 10.43 4 15.46c.85 3.19 1.7 6.38 2.56 9.7 2.4 7.47 5.06 15.12 8.1 23.27a70.33 70.33 0 01-11-1.18c-3.55-.73-7.21-1.12-10.74-1.5-3.24-.36-6.59-.71-9.83-1.33-7.37-1.41-15.35-3.07-24.4-5.07-.55-.12-1.89-.33-3.42-.57a52.76 52.76 0 01-6.86-1.26c-13-2.63-20.89-4.22-23.48-5.35-.1-.06-10.57-3-11.15-.46-.32 1.6.19 2.3 3.95 5.32 1.28 1 2.63 2.07 3.53 2.77l1 .78a30.85 30.85 0 006.09 4.17 37.66 37.66 0 014.2 2.6c5.63 3.52 12.54 6.93 19.23 10.23 4.85 2.39 9.43 4.65 13.56 7 14.84 7 27.2 12.08 44.85 18.94 3.24.93 6.36 2 9.54 3 4 1.35 8.11 2.73 12.58 3.9 5.16 10.79 9.47 18.8 12.19 23.65 3.68 6.54 7.83 13.94 13.18 18.41l.43.36.37-.59c.26-.41.54-.78.82-1.16a8.88 8.88 0 001.84-3.55 146.91 146.91 0 002.85-15.65c.85-7.36.13-10.06-3.65-13.76-2.62-2.61-7.36-9.83-13.72-20.92a20.42 20.42 0 010-3.83c2.16-23.11 4.16-45.61 5.85-64.59.48-5.47.95-11 1.41-16.46.82-9.69 1.66-19.71 2.64-29.5 1.37-13.6 2.87-27.4 4.32-40.76q1.28-11.7 2.52-23.46l.13-1.17c.34-3.2.68-6.53.89-9.83.19-2.83.39-6.54.31-10.26 0-.59.12-2.39.26-4 .33-4 .52-6.53.25-7.9l-.56-2.81-.83 2.57c-1.45 4.54-2.28 7.35-4.16 15.24-.26 1.1-.59 2.41-.93 3.8-.71 2.82-1.51 6.06-2 8.42-2.52 12.57-4.88 23.23-7.18 33.53-2.85 12.79-5.53 24.87-8.45 40.17-2 10.38-3.35 16.84-4.49 22.52-1.72 8.49-3.09 15.2-6 30.81-.18 1.44-2.57 14.82-3.6 20.27-3.8-7.76-7.07-14.83-9.5-20.56a148.51 148.51 0 01-5.1-15.08c-.64-2.12-1.26-4.21-1.92-6.27-1.4-4.42-2.79-9.09-4.23-14.27-.85-3-2-8.38-1.8-10.24.19-1.67 1.09-5.45 4.39-14.21 8.59-23.23 18.58-50.22 28.5-76.73 1-2.76 2.12-5.44 3.2-8.11 1.47-3.63 3-7.4 4.36-11.3 3.61-10.29 7-20.71 10.65-32.26l.22-.62c8.2-23.33 8.15-24.51 8.13-25.3v-1.45l-.55.11a1.62 1.62 0 00-.47-1c-.4-.32-.79.05-.95.2-.64.65-3.4 6.36-9.31 18.95-1.67 3.55-3.24 6.9-3.5 7.37q-14.88 27.44-29.68 54.93-5.92 11.1-11.84 22.23c-3.65 6.86-7.3 13.74-11 20.56a28.12 28.12 0 01-2.1 3.1l-1 1.29c-.71-3.26-1.41-6.43-2.11-9.56-2.5-11.16-4.87-21.73-6.3-32.85-.43-3.35-.82-7.07-1.17-11.07a14.39 14.39 0 011.66-8.93c1.67-2.8 3.29-5.73 4.91-8.67a164.72 164.72 0 019-14.93c12.13-16.95 23-37 33.6-56.41q2.87-5.29 5.76-10.56c2.13-3.87 4.17-8 6.15-12 2.51-5.07 5.1-10.33 7.9-15.05a119.47 119.47 0 006.92-15c.87-2.15 1.74-4.3 2.65-6.41.1-.24.78-1.61 1.7-3.52 7.82-15.85 7.82-16.1 7.76-16.99a10.35 10.35 0 00-.74-4.3l-.25-.32c-.62-.5-.83-.67-11.32 15-1.23 1.86-2.13 3.21-2.31 3.44l-2.62 3.34c-3.52 4.46-7.15 9.06-10.65 13.86-3.57 5-7.12 10-10.67 15.1-5.27 7.53-10.71 15.28-16.18 22.59-9.85 13.13-20 26-29.86 38.55l-6.34 8.06c-.15-5 .17-21 1.5-53.75a13.68 13.68 0 013.33-8.86q3.87-4.41 7.72-8.83t7.75-8.88q5.32-6.1 10.66-12.19c8.13-9.28 16.54-18.87 24.74-28.57 5-5.89 9.94-12.1 14.76-18.11 3.47-4.34 7-8.68 10.47-13a65.1 65.1 0 014.35-4.75c1.06-1.08 2.12-2.16 3.15-3.31a6 6 0 001.53-3.4 10.31 10.31 0 00-.6-4.57l-.33-1-.58.4c-.62.41-1.27.77-1.93 1.13a23.13 23.13 0 00-2.88 1.8 27.73 27.73 0 00-2.76 2.43 27.87 27.87 0 01-2.66 2.31q-7.22 5-14.45 9.92c-4.83 3.29-9.66 6.57-14.47 9.93-3.47 2.43-6.92 5-10.36 7.49-4.05 2.95-8.08 5.91-12.15 8.72-1.25.88-2.73 1.94-4.32 3.09-4.85 3.5-13.67 9.88-15.71 9.6 2-16.53 4-31.65 6-46.21l.08-.61c.34-2.51.34-2.51.45-3s.25-1.13.64-3.23c.73-4 .73-4 3.41-5.88.59-.39 1.26-.86 2.16-1.52 8.3-8.17 20.32-19.88 28.86-27.21 5.88-5 11.67-10.82 17.28-16.4a269.84 269.84 0 0119.85-18.56c.35-.28 1.51-1.6 3.7-4.08 2.68-3 6-6.77 7.83-8.54a38.57 38.57 0 002.85-3.15c.39-.46.78-.92 1.21-1.4.18-.24.79-.87 1.63-1.74 7.8-8.18 10.67-11.95 11-14.4a3.62 3.62 0 00-.17-1.7l-.18-.49-.3-.1c-1.82-.65-8 3.78-15.4 9.18-1.79 1.31-3.2 2.36-3.79 2.7-1.93 1.14-3.86 2.46-5.74 3.73-1.25.85-2.51 1.71-3.77 2.52l-3.26 2.13c-3.48 2.3-7.08 4.65-10.68 6.66s-7.08 3.9-10.63 5.83c-9.38 5.07-19.08 10.32-28.39 17a20.19 20.19 0 01-5 2.61 1.22 1.22 0 01-.82 0c3.69-17.08 7.64-35.3 11.55-53 .4-1.41 2.1-3.51 5.64-4.84 1.76-1 3.36-1.91 4.86-2.78 5.08-2.92 9.1-5.22 15.1-8a36.5 36.5 0 018.87-5.08A256.28 256.28 0 00206.35 80c4.2-2.87 8.16-5.58 12.16-8.13 5.18-3.23 10.26-7.95 15.18-12.5 3.36-3.11 6.84-6.32 10.28-9 .87-.68 1.75-1.32 2.64-1.94a42.84 42.84 0 004.2-3.26 4.75 4.75 0 001.36-3.17 8 8 0 00-1.17-4.67l-.3-.51-.38.15c-4.26 1.72-8.72 3-13 4.32-1.48.45-3 .88-4.46 1.35-4.89 1.47-9.84 3.5-14.63 5.47s-9.53 3.92-14.3 5.38c-.75.23-1.51.44-2.27.66a49.82 49.82 0 00-7 2.38 85.11 85.11 0 01-9 3.31 82.86 82.86 0 00-10.45 4c-2.14 1-4.28 2.13-6.41 3.22s-4.35 2.21-6.53 3.26a11.09 11.09 0 01-1.59.66c2.63-8.85 4.73-15.82 7.11-23.72l3-10a8.22 8.22 0 013.73-5.13c6.42-3.87 12.23-7.52 17.8-11.17a60.36 60.36 0 005.05-4c.79-.68 1.57-1.34 2.37-2 1.09-.86 2.17-1.76 3.24-2.65 2.55-2.09 5.19-4.27 7.83-6.14 3-2.12 6-4.16 9-6.21h-53.7c-.09 3.43-.2 6.85-.32 10.21s-.23 6.83-.31 10.27A59.44 59.44 0 01163 36.6c-2.19 6.91-4.71 15.29-6.55 21.41-.86 2.86-1.6 5.33-2.11 7a554.2 554.2 0 01-1.24-3.68c-1.19-3.51-2.21-6.56-3.62-10.2-2.31-6-4.67-12-7-18-3.59-9.11-7.31-18.51-10.78-27.95q-1-2.62-2-5.21h-12.29q1.75 7.35 3.54 14.7c2.05 8.54 4.11 17.06 6.1 25.65zM1307.63 1012.36c-1.46-24.5-2.62-49.11-3.63-73.66-1.2-30.66-5.59-60-10.51-88.92-4.55-26.84-15.24-43.66-28.6-53.69-13.17-9.93-26.24 8.74-24.76 35 .64 12.15 1.76 25.11 4.63 35.72 8.24 30.66 15.27 62.67 25.86 91 5.51 14.75 9.66 37.79 14.19 57.83h23c-.04-1.12-.11-2.22-.18-3.28zM1528.18 758c-18.46 88.5-51.65 83.8-72.54 115.65s-44.75 59.54-31.1 137.8c.24 1.4.47 2.79.7 4.19h176V825.35c-4.53-10.32-4.62-18.46 0-22.07V688.66c-41.09 14.57-62.9 20.55-73.06 69.34zM550.76 949.85c-31.9-148.82-60.1-181-128.4-268.62-31.36-40.23-82.56-5.45-115.88 6.42C263.61 703 241 708.1 230.65 758c-18.46 88.5-51.65 83.8-72.54 115.65s-44.75 59.54-31.11 137.8c.25 1.4.48 2.79.71 4.19H573.4c-2-8.45-21.1-58.48-22.64-65.79zm-100.61 31.86c-13.75-13.29-22.11-38-42.19-58.49-17.42-17.64-30.14-28.85-49.37-40.94-53.67-33.67-72-81-48-81 11.11 0 31.26 10.12 61.16 36.4 98 86.04 104.07 168.71 78.4 144.03zM291.54 609.94c5.69 0 8.85-9 10.9-20.12 2.71-14.53 2.51-30.26-.37-46.49-2.47-14.05-5.43-27.76-7.85-41.81-4.35-24.89-8.51-49.88-12.68-74.82-3.25-19.55-6.34-39.21-9.56-58.75-1.46-8.95-4-15.89-8.79-21.63-.62 4.56-1.14 6.6-1.14 8.78-.19 28.48.36 57.36-.59 85.43-1.19 34.85.76 69.94 3.48 105.36a243.33 243.33 0 007.13 41.87c4.34 17.36 11.51 21 18.59 22.1a5.14 5.14 0 00.88.08zM1591.75 501.52c-4.36-24.89-8.51-49.88-12.69-74.82-3.24-19.55-6.34-39.21-9.56-58.75-1.45-8.95-4-15.89-8.79-21.63-.62 4.56-1.13 6.6-1.13 8.78-.19 28.48.36 57.36-.59 85.43-1.19 34.85.76 69.94 3.47 105.36a245.28 245.28 0 007.13 41.87c4.35 17.36 11.51 21 18.6 22.1a5.14 5.14 0 00.88.08c5.68 0 8.85-9 10.9-20.12.5-2.72.91-5.49 1.22-8.29v-26.71c-.38-3.79-.91-7.63-1.6-11.49-2.47-14.05-5.43-27.76-7.84-41.81zM356.85 155.84c50.72 54.48 42.79 49.32 36.6 90.76s-8.84 125.94 47 61.55S488.12 272.6 492.09 426c1.66 63.87 4.18 122.24 14 196.5 12.66 95.62 40.78 187.5 55.83 277.5 7.11 42.34 13.85 82.91 19.09 115.67H718.7c2.31-5.55 4.92-8.64 7.36-8.64 2.28 0 4.41 2.71 6 8.64h430.88c-2.85-18.78-8.36-43.69-19.54-81.3-3.56-11.93 6.23-42.64 1.43-51.49-20-36.94-42.85-34.93-76.81-33.83-40.83 1.38-94.45 7.43-135.41 24.39C849.43 908 778.2 1072.36 783.4 994.39s164.91-264 224.13-263.8 75.5-6.1 75.68-139.93-80.59-140.91-109.12-171.42-36-73.53-64-134.81-42.47-44.27-63.39-5.26c-20.93 39.17-8.87 42.15-76.28 10.4-22.58-10.61-61.54 33.49-84.28 44.21-7.74 3.6-13.06 1.56-17.5-.47-6.85-3.14-11.6-6.28-19.88 11.3-17.6 37.35 2.72 103.59-7.32 169.83C620 655.57 610.3 711.7 627.38 809.92c4.24 24.53 8.2 104.37 11.52 122.28 16.62 89.84 24.34 92-10 17s-74.21-381.05-85.31-485.7c-13.28-125.2-30.06-218-19.32-249.31 4.72-13.71 13.78-4.9 24 3.91 13.12 11.34 28.13 22.68 38.23-13.87 18-64.87-24.89-92.68-33.25-150.77C550.49 34.79 552.3 17 554.69 0H396.43c-2.41 14.89-5.86 27.51-11.54 35.21-25.05 34.01-78.77 66.21-28.04 120.63zM915 553.48c8.88-7.65 8.55-22.67 12.08-22.67 2 0 5.15 4.72 11.84 18.09 18.57 37.19-45.27 116.52-76.28 141.54s-90.93 193.45-90.93 193.45c4-26.7 5.8-101 25.44-141.15S901.14 565.53 915 553.48zM709.9 830.31c.83-17.26 2-109 6.18-128.57 26.76-126.65 26.12-198.08 35.29-257 1-6.37 5.68-9.24 11.09-9.24a19.92 19.92 0 0119.15 17.27C784 472.43 763.26 567.14 757.24 602c-19 109.66-36.77 261-36.77 261-11.37 63.17-15.11 59.52-10.57-32.69zM456.16 185.54c-6.46 9.94-6.72 14.9-9.62 19.63-.17 1.47-.19 6.08-2.94 8.25-1.19 1.15-3.72-2.1-1.09-6.4 5.59-48.78-34.87-29.72-15.29-52.16 7.44-8.49 17.52-13.05 25.75-13.06 14.14 0 22.81 13.51 3.19 43.74zM507.75 80a10.67 10.67 0 012.52.31c27.45 6.31 7.65 58 7.65 58-14.73 19.52-23.95-3-24.43-25.45-.35-16.39 3.99-32.86 14.26-32.86zm-44.92-61.6c6.65-9.16 13.25-13.26 18.76-13.25 14.6 0 21.55 28.77 1.26 68.62-28 55-45.35-1.3-45.35-1.3 40.04-23.77 1.1-20.72 25.33-54.05zM414 15.15c3.36-8 6.15-11.48 8.43-11.48 8 0 9.76 41.94 7.61 77.72-2.67 46.09-29.61 22.92-29.61 22.92C432 63.77 399 51.17 414 15.15z"/></g></g></svg>