<svg xmlns="http://www.w3.org/2000/svg" viewBox="0 0 1583.5 346.39"><defs><style>.cls-1{fill:#005284}</style></defs><g id="Calque_2" data-name="Calque 2"><g id="Calque_2-2" data-name="Calque 2"><path class="cls-1" d="M245.67 285c-2.33-3.18-4.5-6.46-6.72-9.73-.21-.29-.2-.81-.46-1.07-6-5.12-11.56-10.82-18.09-15.09-4-2.6-6.7-5.23-7.36-9.74s-3.39-6.19-7.81-7.16c-3.71-.78-7.08-3.28-10.61-5-1.51-.8-2.94-2.54-4.39-2.53-6.42 0-11.34-2.86-16.58-6.14-2.9-1.83-7.5-2-11-1.37s-5.62.08-8.28-2.26c-9.41-8.37-32.34-13-43.26-3 5.75 4.07 10.06 8.45 11 15.54.28 2.28 2.74 4.2 3.75 6.48 1.79 4 3.22 8.16 4.76 12.26.33.89.19 2 .66 2.79 4.59 7.65 8.45 15.9 14.05 22.7 7.45 9.06 16.21 17.07 24.56 25.44a14.83 14.83 0 005.08 2.74c3.87 1.51 7.64 2.74 8.3 7.95.12 1.06 3.27 1.87 5 2.71 2.2 1.06 4.71 1.65 6.64 3.05 6.66 4.85 13 10.11 19.7 14.87 3.57 2.55 6.2.77 6.34-3.32.27-8.62-.9-17-6-24.39-2.62-3.74-5.57-7.48-3.78-14.06 3.26 2.19 6.41 3.46 8.34 5.78 3.53 4.26 7.93 4.57 12.67 4 6.53-.76 13-1.93 19.6-2.72 4.26-.5 5-3.13 3.26-6.11-2.76-4.41-6.28-8.38-9.37-12.62zm-28.34-20.63c.47.34.92.68 1.36 1q-6 5-12.06 10.15c-.38-.42-.76-.86-1.1-1.28 3.92-3.24 7.88-6.57 11.8-9.85zm-10.93-13.06c-4.22 6.48-8.3 12.72-13 20-1.4-7.59 6.33-18.89 13-20zm-18.92-9.49c.7.16 1.34.28 2 .43a46.29 46.29 0 01-4.68 21c-.67-.15-1.33-.28-2-.45q2.38-10.48 4.68-20.98zm-57.1-13.21c12.11-1 50.45 31.07 54.4 45.41-16.56-17.02-33.86-33.15-54.4-45.41zm10.94 31.06c-.19-.82-.38-1.62-.58-2.44q8-1.88 16-3.78c.2.94.39 1.82.62 2.73-5.36 1.15-10.7 2.34-16.04 3.49zm10.26 16.15c-.3-.9-.57-1.78-.87-2.68l17.2-5.82c.3 1 .59 2 .86 2.94zm14.67 15.26c-.63-.7-1.26-1.38-1.87-2.07q8-6.74 16.06-13.5c.36.38.73.74 1.06 1.13zm10.12 12.13l-2.18-1.66 9.88-12.47c.66.52 1.37 1.05 2 1.56q-4.82 6.28-9.7 12.57zM189 315.82c-.56-.26-1.08-.54-1.61-.82.94-7.41 2.84-10.85 7.69-12.08-2.2 4.77-4.16 8.86-6.08 12.9zm3.78-28.73c.55-.22 1.15-.46 1.71-.7q7.32 19.2 14.71 38.41c-9.61-10.88-13.87-23.95-16.41-37.71zm4.7-7.42c9-3 44.19 10.27 47.14 17.39-15.54-5.72-30.84-11.37-47.13-17.39zM1085.49 159.79c6.44-7.12 12.52-14.58 19.38-21.23 8.83-8.53 12.35-20 17.8-30.31a1.09 1.09 0 00.1-.71c-.17-.93-.1-2.32-.67-2.69a4.43 4.43 0 00-3.4-.62c-3.79 1.43-6.37 5.86-5 9.39 1.57 3.94.71 7.2-1.31 10.45a78.15 78.15 0 01-4.51 6.73c-9 11.39-19.42 21.52-29 32.38a33 33 0 01-5 4.34c-6.86 5.17-13.8 10.28-20.71 15.42-6.73 5-13.4 10-21.21 13.31a5.48 5.48 0 00-2.16 1.89c-.23.38.18 1.21.39 2.35 1.39-.76 2.43-1.3 3.48-1.88 10.52-5.92 20.18-13.18 30-20.15 7.8-5.56 15.33-11.46 21.82-18.67z"/><path class="cls-1" d="M1078.31 156.87c.76-.78 2.1-1.5 2.28-2.45a12.72 12.72 0 000-5.66c-.82-3-3.64-2.55-6.38-2.9-2.08 6.99-2.08 6.99 4.1 11.01zM1088 145.74c.89.82 3.23-.22 3.46-1.49.52-2.68-1.93-7.37-4.41-8.51-.86-.38-2.82.73-2.8 1.7a10.83 10.83 0 003.75 8.3zM1048.37 204.29a3.42 3.42 0 001.78-2 2.21 2.21 0 00-.8-1.89 8.75 8.75 0 00-6.93-1.72 2.4 2.4 0 00-1.7 1.22 3.58 3.58 0 00.34 2.68 10.88 10.88 0 002.71 2 24.46 24.46 0 004.6-.29zM1120.66 120.45c-.34.38-.2 1.35 0 2a1.52 1.52 0 001.13.78 10.63 10.63 0 008-3.06c1.16-1 3.47-1.3 2.52-4.61-3.15 1-6 1.72-8.76 2.75a7.79 7.79 0 00-2.89 2.14zM1126.6 131.23c.39-.24.47-1.42.24-2s-1.06-1.4-1.51-1.33c-2.87.49-5.69 1.11-8.49 1.87-.5.15-.76 1.1-1.23 1.82.51.61.83 1.43 1.39 1.62 3.56 1.26 6.68-.09 9.6-1.98zM1063.35 183.35c4 2.81 7.51 4.35 11.82 1.92-2.66-3.55-3.22-3.93-6.42-4.36-1.94-.26-3.87-.29-5.4 2.44zM1081.16 171.44c-1.38-.69-3.43-.5-4.76 2.18 3.66 3.88 7.72 3.34 12.26 2.31-1.44-3.93-5.05-3.28-7.5-4.49zM1115.71 145c.53-.07 1.4-1 1.32-1.45-.14-.79-.77-2.06-1.32-2.13a70.6 70.6 0 00-8.6-.47c-.48 0-1.25.87-1.33 1.42a2.58 2.58 0 00.87 1.79 10.92 10.92 0 002.12 1.29c2.15-.17 4.57-.22 6.94-.45zM1056.3 174c1.83.4 3.56-1.21 3-2.86a8.49 8.49 0 00-4.45-5.43 2.52 2.52 0 00-3.17 1.62 2 2 0 00-.08.31 5.74 5.74 0 004.7 6.36zM1069.34 166.68c.54.08 1.75-1 1.83-1.66a7.31 7.31 0 00-4.59-7.43c-.6-.2-1.56.62-2 .85-.82 3.56 1.74 7.78 4.76 8.24zM1055.35 190.37a2.85 2.85 0 00-1.9 1.73 3 3 0 001.14 2.33 8.6 8.6 0 003.31 1.37c2.81.59 5.52-.55 5.38-2.16-.22-2.65-2.8-2.17-4.55-3.2a12.35 12.35 0 00-3.38-.07zM1048.5 182.86c1.48-3.52 1.07-6.65-2.56-9.76-2.85 3.75-2.63 6.87-.6 10 .58.95 2.73.75 3.16-.24zM1095.31 167.11a2.52 2.52 0 001.43-2c-.1-.71-1.14-1.33-1.82-1.93-.15-.14-.46-.1-2.07-.39a34.25 34.25 0 00-5 .88c-.56.15-1 1.53-1 2.37 0 .46.87 1.36 1.37 1.39a43.82 43.82 0 007.09-.32zM1033.66 190.08a2.25 2.25 0 001.85-.69c2.08-2.6 1.84-5.44.29-8.15-.38-.64-1.58-.79-2.51-1.22a11.05 11.05 0 00-1.15 8.75 2.29 2.29 0 001.52 1.31zM1105.47 155.87c1.14-.49 2.22-1.47 1.57-2.84a3.09 3.09 0 00-2.2-1.54c-2.67-.11-5.41-.12-8.33 2.59 2.94 2.65 5.8 3.14 8.96 1.79zM1100 134.54c2.47-3.74 2.11-6.28-1.2-8.64a2.8 2.8 0 00-2.61-.09 3 3 0 00-.7 2.53 9 9 0 004.51 6.2zM1107 122.93a2.23 2.23 0 002-.41c1.62-1.67.1-5.37-2.91-7.09a7 7 0 00-2.07-.4c-1.83 3.97-.96 6.28 2.98 7.9zM117.68 297.7c-10.06-8.34-20.54-16.17-32.25-22.16s-23.57-11.34-34.73-18c-14.33-8.6-30.57-9.22-46.14-12.74a1.54 1.54 0 00-1 .1c-1.16.57-3 1-3.27 1.84a6 6 0 00.39 4.68c3.2 4.49 9.94 6.32 14.08 3.23 4.64-3.46 9.22-3.49 14.23-2a106.64 106.64 0 0110.42 3.57c18.14 7.84 35.14 18 52.8 26.79a45.1 45.1 0 017.47 5.08c9.22 7.22 18.38 14.55 27.58 21.84 8.91 7.07 17.9 14.12 25 23.2a7.1 7.1 0 003.22 2.17c.6.2 1.54-.65 3-1.33-1.47-1.56-2.55-2.75-3.68-3.9-11.55-11.77-24.5-21.9-37.12-32.37z"/><path class="cls-1" d="M72.67 285.92c-3.67 2.08-2.07 5.69-1.57 9.42 9.89.2 9.89.2 13-9.33-1.3-.73-2.72-2.22-4-2.14a17.4 17.4 0 00-7.43 2.05zM62.89 273.12c-3.7.29-9 5.15-9.63 8.82-.21 1.26 2 3.43 3.21 3.08a14.83 14.83 0 009.62-7.85c.76-1.47-1.44-4.17-3.2-4.05zM153.78 307.07c-.69-.07-1.86.93-2.2 1.72a12 12 0 00.18 9.72c.36.8 1.46 1.82 2.2 1.81a4.87 4.87 0 003.43-1.37c.94-1.2 1.21-2.93 1.73-4.29-.73-2.22-1.1-4.26-2.08-5.93a4.7 4.7 0 00-3.26-1.66zM21.32 243.1c.63.33 1.85-.2 2.6-.65a2 2 0 00.63-1.75c-.8-4.21-3.39-7.26-6.85-9.49-1.74-1.14-2.93-4.09-6.95-1.69 2.39 3.81 4.38 7.3 6.69 10.56a10.61 10.61 0 003.88 3.02zM34.94 244.86c.35.6 1.7.63 2.8 1 .63-.88 1.6-1.61 1.67-2.4.4-5.13-2.48-8.76-6-11.94-.46-.4-2-.1-2.71.4s-1.48 1.9-1.22 2.46a117.33 117.33 0 005.46 10.48zM124.21 296.39c2.29-6.22 3.11-11.43-1.63-16.23-3.71 4.76-4 5.62-3.46 10 .34 2.62.98 5.18 5.09 6.23zM106.82 282.64c3.83-6.16 1.68-11.34-1.26-17-4.63 3.29-2.53 7.8-3.27 11.47-.43 2.1.57 4.71 4.53 5.53zM55.34 255c.74-.08 1.57-1 2-1.77a14 14 0 001-3.23c-.92-2.8-1.84-6-3-9-.27-.66-1.85-1.47-2.37-1.22-1 .46-2.43 1.73-2.33 2.48A98.08 98.08 0 0053 253.75a2.76 2.76 0 002.34 1.25zM109.53 306a11.61 11.61 0 00-5.58 7.76 3.43 3.43 0 003.25 3.6h.44a7.79 7.79 0 006.71-8.36c-.1-2.6-2.83-4.3-4.82-3zM97.35 292.54a10 10 0 00-8.15 8.65c-.06.85 1.36 1.83 1.83 2.41 5-.25 9.61-5.1 9.16-9.23-.09-.75-1.95-1.96-2.84-1.83zM139.2 306.32a4 4 0 002.68-2.32 11.55 11.55 0 00.65-4.84c-.23-3.89-2.67-7.06-4.75-6.31-3.42 1.24-1.86 4.45-2.61 7.13.29 1.31.35 3.07 1.1 4.46a3.83 3.83 0 002.93 1.88zM128.8 316.1c-5.16-.71-9.12.91-11.94 6.79 5.94 2.41 10 1 13.42-2.75.99-1.08-.03-3.85-1.48-4.04zM89.66 271.11c.41.67 2.36.77 3.5.55a2.71 2.71 0 001.33-2.3 60.63 60.63 0 00-2.85-9.31c-.31-.75-2.38-1.48-3.2-1.16s-1.32 2-1.9 3.07c-.13.25 0 .65.21 2.85a46 46 0 002.91 6.3zM142 330.87c-4.16-1.81-7.8-.49-10.82 2.49-.72.71-.49 2.37-.74 3.71 4.52 1.1 8.39.62 11.94-1.55a2.67 2.67 0 00.73-3.71 2.74 2.74 0 00-1.11-.94zM74.05 263.05c2.46-4.8 2.08-8.71-.8-12.42-1-1.33-2.71-2.37-4.28-1.07a4.31 4.31 0 00-1.26 3.44c.81 3.55 1.75 7.17 6.34 10.05zM36.19 269.94a3.82 3.82 0 00.79 3.45 4 4 0 003.57.05 12.28 12.28 0 006.57-8.13c-5.79-1.92-8.99-.57-10.93 4.63zM28.16 257.79c-2.74-1.55-7.09 1.77-8.28 6.32a9.47 9.47 0 00.17 2.86c5.8.94 8.59-1 9.38-6.7a3.1 3.1 0 00-1.27-2.48zM893.81 287.36c-.84.26-1 1.14-1.14 1.92-.34 1.82-.6 3.67-1 5.45a38.08 38.08 0 01-4.15 10.91 97.76 97.76 0 00-5.61 10.24c-.05.09-.08.21-.15.25-.25.12-.41.1-.48-.14a1.79 1.79 0 01.06-.86c0-4 .77-11.37 1.16-15.44.32-3.08.8-6 2.37-15 .63-3.55 4.2-13 4.35-13.2a19.21 19.21 0 012.72-5.36c.83-1.27 2.37-1.75 3.32-2.88 1.91-2.25 3.13-3.15 4.41-5.8 2.54-5.28 4.42-8.56 7-13.84 1.1-2.28 2-4.64 3-7 .51-1.27.86-2.59 1.33-3.87a20.1 20.1 0 001.14-6.92c.06-4.71-1.78-7.4-6.41-8.23a5.61 5.61 0 00-4.21.51c-1 1.29-1.86 1.69-2.79 3.26-1.42 2-1.83 5.09-2.54 7.43-.75 2.5-1.4 5.06-2.15 7.59-1.74 5.71-1.69 7.84-2.47 13.78a23.67 23.67 0 01-.86 4.18c-.23 1.62-.23 1.62-.46 3.15a16.55 16.55 0 01-1.52-5.86c.38-5.9-.06-7.07.88-12.69 1-5.79.65-5.7 1.77-11.43a27.88 27.88 0 013.07-7.52 6.05 6.05 0 013.23-2.89c.47-.34 2.09-1 2.67-1.33-2.39-1.53-7.9-1.46-9.93 0a14.78 14.78 0 00-3.7 3.7 25 25 0 00-3.73 9.85 20.41 20.41 0 00-.51 4.92c-.35 7.35-.39 13.1-.48 17.25a12 12 0 00.19 2.32c1.63 11.92 3.9 9.58 4.22 12 .11 1.05-.17.54-.5 1.45s-.73 2.14-1 3c-1.18 3.7-2.1 5.93-3.15 10.11a110.26 110.26 0 00-2.31 12.75c-.8 6.37-.87 12.4-1.6 18.8-.2 1.73-.22 3.22-.68 1a17.61 17.61 0 01-.22-2.52 60 60 0 01.48-10.2 22 22 0 00-1.42-10 6.92 6.92 0 00-4.45-4.19 34.74 34.74 0 00-4.68 13.57 39.6 39.6 0 00.82 11.89c.81 4 3.68 7 6.23 10.19a7.85 7.85 0 012.1 3.9c-.06 4.81 1.42 14.31 3.14 18.38.17.52.49 1.27.86 2.12h4c-.93-2.41-1.75-4.84-2.15-6.32-1-3.83-2.53-11.11-1.5-15a3.45 3.45 0 01.65-1.28c1.46-1.72 1.38-2.75 2.94-4.35a50.28 50.28 0 006.32-7.65 107.33 107.33 0 006.08-10.69 16.25 16.25 0 00.9-2.15c1.16-3.55 1-6.93-1.32-10-.59-.72-1.13-1.62-2.14-1.26z"/><path class="cls-1" d="M884.72 215.3c.57-.5 1.1-1.05 1.71-1.65a3.53 3.53 0 00-4-.11 8.64 8.64 0 00-2.72 2.16c-1.4 1.76-3.66 6-3.92 8.27-.37 3.39-.54 4.86-.84 8.25s.34 4.61.4 7.91c.33 19.09 3.18 19.88 4.9 22.6a5.65 5.65 0 002.26.91c.48-1.2-2.22-5.36-2.42-6.2a32 32 0 01-1.08-4.82c-.41-5.06-.81-8.5-1-13.56-.16-4-.41-5.8.14-9.76.72-5.36 2.51-10.3 6.57-14zM918.54 222.92a3.55 3.55 0 00-3.63-1.72 1.46 1.46 0 00-.36 1.71c1.91 5.16 1.41 8.94-1.4 15.05a32.75 32.75 0 01-3.5 7.66c-2.52 4.39-5.28 10.08-8 14.38a30.41 30.41 0 01-2.95 3.75c-.55.63-2.71 2.13-2.84 3.42a4.29 4.29 0 003-.85c4.1-1.72 10.12-9.12 13.08-15 1.48-3 2.42-4.82 3.68-7.89s2.51-6.33 3.7-9.53a16.3 16.3 0 00.66-7.81 8.8 8.8 0 00-1.44-3.17zM1020.09 226.08a3 3 0 01-.67-.11c-.46-.18-.91-.34-1.36-.53a14.52 14.52 0 01-1.75-.91c-1.16-.67-2.29-1.39-3.44-2.07a28.09 28.09 0 00-5.22-2.35 7.73 7.73 0 00-2.12-.46 16.26 16.26 0 00-2.77-.42 22.51 22.51 0 00-4-.39 40.63 40.63 0 00-6 .58c-2.12.32-4.25.68-6.38 1a10.75 10.75 0 01-5.25-.38c-.51-.18-1.52-.37-1.8-.92s.17-1.49.38-2a2.2 2.2 0 01.39-2.17c1-1.35 1.94-2.71 3-4a30.16 30.16 0 005.44-11.58 26.79 26.79 0 00.57-8.18 16.46 16.46 0 00-1.83-7.21c-.09-.16-.13-.34-.23-.5a6.94 6.94 0 01-.71-4.34c.22-1.89.41-3.78.61-5.69 0-.25-.06-.45-.46-.5-.64 1.24-1.2 2.53-1.87 3.75s-1.5 2.59-2.22 3.87-1.44 2.62-2.15 3.92c-1.74 3.2-3.56 6.35-5.2 9.6a17.92 17.92 0 00-1.7 5.62 31.81 31.81 0 000 7.49 8.91 8.91 0 01-.46 3.7c-.2.59-.43 1.18-.67 1.74a5 5 0 01-.8 1.5c-.63.71-1.25 1.43-1.91 2.12a5.89 5.89 0 01-.84.65 4.38 4.38 0 01-.66-.7c-1.49-2.44-3.37-4.65-4.22-7.45-1.69-2.69-2.59-5.75-4.19-8.5a45 45 0 00-3.54-5.35 38.15 38.15 0 00-6.13-6.25 14.73 14.73 0 00-4-2.43 11.35 11.35 0 01-4-2.2c-.06-.06-.21 0-.43 0a2.62 2.62 0 00-.28 1.67 7.08 7.08 0 00.41 2.19 5.68 5.68 0 001 2.21 17 17 0 002.78 3.21 12.07 12.07 0 011.88 1.9c1.36 1.8 2.81 3.55 4.11 5.39a38.12 38.12 0 014 7.14 11 11 0 00.63 1.29c1.12 1.9 2.23 3.8 3.42 5.64a30.84 30.84 0 006.12 6.68c.15.14.72.76.85.93a5.37 5.37 0 01-2.35.32c-.67.07-1.44.08-2.11.1a13 13 0 01-1.53-.13 44.65 44.65 0 00-6.54.34 71.64 71.64 0 00-14.66 3.92 14.2 14.2 0 00-4.63 3 10.58 10.58 0 00-2.88 4.87c-.05.22.11.5.18.83a24.32 24.32 0 014.47-1.61 17.1 17.1 0 014.63-.25c2.32.16 4.63.53 6.93.87a27.52 27.52 0 0013.55-1.36 13.75 13.75 0 003.49-1.9 17.31 17.31 0 002.91-2.28c.09-.11.56-1.06.81-1.14a10.45 10.45 0 01-.34 4 19.56 19.56 0 00-.5 3.14 29.19 29.19 0 00.4 6.4c.38 2.35 1 4.66 1.57 7 .17.76.47 1.49.58 2.25a11.82 11.82 0 001 3.21c.25.6.6 1.17.81 1.79a31 31 0 002.59 5.35 20.36 20.36 0 005.26 6 3.6 3.6 0 00.67.49s.59.55.86.24a.36.36 0 00.42-.26 14.5 14.5 0 000-4.46c-.16-1.47-.44-2.93-.69-4.39a20.12 20.12 0 01.49-7.25 15.74 15.74 0 00.28-5 31.76 31.76 0 00-1.15-4.81 13.7 13.7 0 00-.93-2.32c-.82-1.65-1.67-3.29-2.53-4.93a12.07 12.07 0 01-1.3-4.06 5.57 5.57 0 010-1h.45c.57 0 1.14 0 1-.72-.06-.38-.47-.74-.05-1.19h.65s7 4.91 11.78 4.76 14.47.24 23.13-1.76l.93-.21a10.16 10.16 0 003.9-.57 5.65 5.65 0 001.91-1.34l1.69-1.53c.06-.06 0-.21.06-.41a1.73 1.73 0 00-1.54-.2z"/><path class="cls-1" d="M990.13 261.29a16.44 16.44 0 005.83 6.78 4 4 0 003 .75c.94-.22 1.2-1.31 1.35-2.13v-.7a15.53 15.53 0 01.72-3.82 8.18 8.18 0 00.38-1.28c.38-1.08 0-4.77-.25-5.82 0-.09 0-.18-.05-.25a18.55 18.55 0 00-3-6.22c-1.39-1.91-3-3.59-4.56-5.4a13.31 13.31 0 01-1.57-2.15 5.09 5.09 0 00-1.94-2 21.62 21.62 0 01-2.24-1.41c-2.44-2-5.11-3.67-7.09-6.15-.59-.76-1.26-.7-2.14-.27a19.64 19.64 0 00.9 1.78 19.93 19.93 0 002.33 2.94 30.27 30.27 0 007.37 6.91v.15a14.79 14.79 0 000 1.76c.14 1.35.35 2.7.52 4.05a7.65 7.65 0 01-.25 3.49 12.61 12.61 0 00.69 8.99zM1013.15 189.6a46.78 46.78 0 00-6.81 3c-.86.69-1.73 1.38-2.55 2.12a1 1 0 01-.11.1 1.33 1.33 0 00-.21.26c-.94 1.24-1.82 2.54-2.64 3.87-1 1.05-1.95 2.1-2.95 3.13a9.18 9.18 0 00-.83.93 7.53 7.53 0 00-.5 1c-.36.71-1.13.9-1.8 1.2a25.15 25.15 0 00-4.49 2.8c-1.41 1-2.8 2.07-4.2 3.13a27.15 27.15 0 00-3.78 3.33 8.11 8.11 0 00-1.51 2.12c.52.52.52 1.48 1.51 1.7a27.9 27.9 0 013.11-3.59 59.76 59.76 0 018.08-6.06c.55-.33 1.08-.71 1.66-1s1-.55 1.49-.83l.15-.07a3.4 3.4 0 01.69-.41l.19.17a1.74 1.74 0 001.54.37c.58-.17 1-.77 1.55-1.12a11.32 11.32 0 014.06-1.64 17.23 17.23 0 007.72-4.16 15.55 15.55 0 002.3-2.5 14.29 14.29 0 001.58-2.93 8.83 8.83 0 00.87-3.67 3.82 3.82 0 00-4.12-1.25zM1015.43 240.11a15.6 15.6 0 00-5.57-.4 9 9 0 00-1 .15 21.83 21.83 0 01-2.67.43 12.22 12.22 0 01-3-.13c-1.1-.2-2.22-.39-3.33-.55-.51-.07-1-.1-1.52-.14a1.69 1.69 0 01-1-.37 1.29 1.29 0 00-.65-.27 13.88 13.88 0 01-5.32-2.33l-.47-.32a4.93 4.93 0 00-.45-.31l-2.1-1.41c-.29-.21-.48-.34-.38-.32h-.13c-.23-.15-.33-.25-.25-.23-.31-.06-.6-.14-.9-.22-.46.43-1.24.22-1.71.76a4.8 4.8 0 001.82 1.49 19.45 19.45 0 012.56 1.53 21.41 21.41 0 005.24 2.88c.7.29 1.41.56 2.06.82.57 1.13.54 1.18 1.31 1.68a36.64 36.64 0 004.08 2.44 7.21 7.21 0 001.49.62 13.63 13.63 0 004.15.79h1.08a18 18 0 005.44-.93 17.33 17.33 0 002-.72 2.63 2.63 0 001.12-3.55 2.67 2.67 0 00-1.9-1.39zM962.3 114.58a123.89 123.89 0 0111.83-14.89c7.67-8.31 15.71-16.26 23.58-24.39a72.16 72.16 0 0117.8-13.71 40.12 40.12 0 003.54-2.41 4.94 4.94 0 00-5.86-.81c-2.53 1.16-5 2.48-7.42 3.81-8.69 4.76-17.24 9.77-26.07 14.25-7.24 3.69-14.83 6.67-22.21 10.12-6.65 3.11-13.47 6-19.76 9.7-10.64 6.3-19.8 14.58-28.12 23.7-3.08 3.38-5.67 7.17-8.58 10.69a106 106 0 00-11.2 17.51c-5.6 10.5-10.85 21.22-16.69 31.59-5.93 10.55-12.42 20.79-18.65 31.17a31.79 31.79 0 00-2.24 4.19 2.8 2.8 0 00.09 2.25 5.11 5.11 0 005.86 2.65 29.51 29.51 0 013.43-11.67c5.15-10.2 11.53-19.46 20.34-26.86 2.12-1.78 4.4-3.39 6.67-4.95 10.79-7.41 21.53-14.93 32.49-22.09 16.3-10.67 30.22-23.65 41.17-39.85zM901.57 140a168.51 168.51 0 0120.93-25c3.47-3.43 7.49-6.3 11.25-9.38 1.3 1 .36 1.56-.11 2-3.54 3.42-7.21 6.73-10.71 10.2-2.67 2.64-5.23 5.39-7.72 8.21-6.5 7.34-12 15.58-19.51 22.43 2.08-3 4-5.72 5.87-8.46zm10.21 14.42c1.2-3.45 3.6-4.77 5.46-6.26 8.46-6.78 16.14-14.56 25.66-20-8.29 10.84-19.06 18.61-31.12 26.25zm27.36-37.23c-3.26 3.19-6.56 6.33-9.85 9.48-1 1-2 2-3 2.86q-11.29 10.09-22.62 20.16c-1.62 1.45-3.11 3-4.7 4.53s-3.13 2.91-4.72 4.36c-1.19-1-.32-1.57.07-2 3.78-4.31 7.69-8.52 11.42-12.89a127.83 127.83 0 0114.1-14.4c8.68-7.48 16.86-15.6 26.42-22a30 30 0 013.91-2 2.43 2.43 0 00.2-.28c.78 0-.12.13 0 .18l-.21.1c-2.94 4.64-7.16 8.11-11.02 11.89zM808.83 201.54c-.31-1-.72-2.2-2-1.95a2.58 2.58 0 00-1.62 1.68 29.18 29.18 0 01-3.61 8.66c-2.34 4.26-4.43 8.65-6.49 13-4.21 9-6.76 18.65-9.67 28.14-2 6.62-4.18 13.26-4.38 20.3a12.9 12.9 0 01-.81 3c-2.33-1-3.37-4.25-6.37-2.88-1.1 5.29 2.45 7.09 6.34 8.74 0 6-.28 11.89 0 17.76.19 3.72-1.5 6.13-4.09 8.93a36.23 36.23 0 01-2-3.67c-3.69-9.64-7.58-19.21-10.93-29-3.23-9.37-5.94-18.93-8.78-28.44-.95-3.22-2-6.47-1.51-10.12l2.2-1a8.91 8.91 0 005-4.6 1.85 1.85 0 00-.36-1.65 2 2 0 00-1.64-.56 9.57 9.57 0 00-2.09 1.29c-1.17.73-2.34 1.46-3.41 2.11-.65-.61-1.16-.83-1.23-1.17-1.7-7.55-4.27-15-1.9-22.94.84-2.79.9-5.73-1.56-8.4a6.2 6.2 0 00-3.2 6.55c.37 3.76.88 7.53.93 11.3a58.52 58.52 0 002.16 15c2.05 7.32 4.26 14.6 6.43 21.89 4.63 15.58 9.11 31.21 15.51 46.2 3.06 7.18 5.57 14.61 9.37 21.47 2.77 5 5.58 9.93 8.35 14.9a34.78 34.78 0 012.91 5.62c.55 1.63 2.22 2.6 3 4.25h9.82c-2.25-2.61-4.5-5.24-6.65-7.93-2.89-3.62-5.18-7.72-8.08-11.33a17.43 17.43 0 01-3.56-8c-1.42-7.26-1.64-14.65-2.38-22-.59-5.59.34-11.35.65-17 .55-9.75 3.26-19.13 5.23-28.62 1.08-5.22 2.22-10.6 5.38-15.17h.1v-.17l-.1.15.1-.17-.14.23c-1-3.43 1.2-5.93 2.31-8.76 7.1 2.48 7.84 2.32 10.06-2.05-.4-.42-.74-1.06-1.25-1.27-1.92-.84-3.89-1.54-6.21-2.43 2.64-5.13 3.93-11 9-14.74 1.81-1.23 1.76-3.2 1.17-5.15zM780 315.78c-.79-1.76-1.6-3.52-2.46-5.42 3.23-.23 3.23-.23 2.46 5.42zM843.92 223.62a40.28 40.28 0 00-4.28-5.47 2.35 2.35 0 00-2.86-.68c-1.21.52-1.12 1.66-1.25 2.69a4 4 0 00.07 1.85c1.48 3.75.89 7.56 0 11.21-1.51 5.92-3.19 11.82-5.22 17.58-4 11.36-8.61 22.48-11.14 34.31a101.59 101.59 0 01-2.68 10.43c-3.6 10.93-5 22.23-5.89 33.6a123.52 123.52 0 00-.41 16.88h19.95c.36-.78.69-1.57 1.1-2.34 4.7-8.93 8.37-18.43 12.43-27.7.49-1.15.7-2.42 1.08-3.62q1.92-6 3.88-12.05a81.8 81.8 0 002.87-9c3.13-16.09 4.14-32.21.22-48.38a67.24 67.24 0 00-7.87-19.31zm-5.75 60.51a150.15 150.15 0 01-7.91 31.87c-1.11 3-2.23 5.9-3.3 8.87-.42 1.18-1.3 3.48-2.93 4.12.05.3.06.18-.08.06.23-.89.48-1.79.73-2.68.84-3.49 1.76-6.93 2.6-10.38.4-1.62.49-3.34 1-4.95q4.15-13.9 8.42-27.78a16.41 16.41 0 011.39-2.36 24 24 0 01.08 3.23zM755.63 326.21A144.41 144.41 0 00737 314.26a77.71 77.71 0 00-24-7.74 69.26 69.26 0 01-20.95-6.7c-3-1.5-6.11-2.72-9.26-4.11-.85.87-1.55 1.59-2.29 2.37.82 1.31 1.38 2.45 2.15 3.44 8.69 11.16 17.35 22.34 27.51 32.23 4.38 4.25 9 8.42 14.53 11.08.9.43 1.85.78 2.76 1.19h59a63.18 63.18 0 01-11.78-6.3c-6.39-4.35-12.74-8.9-19.04-13.51zm2.69 17.42c-1.83 1-3.31-.19-4.8-.71-7.2-2.47-14-5.75-19.54-11 11.58 4 20.43 8.41 24.34 11.72z"/><path class="cls-1" d="M774.28 283.06c-.93.08-2.27.57-2.59 1.27a32.74 32.74 0 00-1.56 5.38c1.22 1 2.16 1.72 3.27 2.59 0 2.09-.07 3.71-.1 5.21 1.85 1 3.31.89 3.78-.94a9.4 9.4 0 00-.08-4.22c-.11-.54-1.25-.86-2-1.3.49-1.78 1.06-3.57 1.42-5.4a2.38 2.38 0 00-2.14-2.59zM800.82 257.72c-4.33-1.76-7.87-.94-11.42.41 1 3.39 1.55 4.26 3.64 4.32 3.23.09 6.14-.64 7.78-4.73zM799.53 252a6.38 6.38 0 001.2-2.2 4.61 4.61 0 00-5.48-3.41c-1.58.48-3 2.18-2.89 3.62.18 1.78 1.67 2.15 3.09 2.55a4.09 4.09 0 004.08-.56zM744.12 242.18H744a3.24 3.24 0 00-3.08 3.39 2.31 2.31 0 00.05.46 4.27 4.27 0 004.57 3.26 3.74 3.74 0 003.16-3.3 4.21 4.21 0 00-4.58-3.81zM792.4 281a4.87 4.87 0 00-1.82-.18c-1.88-.08-2.89 1.63-2.07 3.4 1 2.14 3 2.87 5 3s3.51-.88 4.08-3.71c-1.87-.95-3.51-1.82-5.19-2.51zM758.45 278.18a7.4 7.4 0 00-6-1.12c-.93.17-1.76 1.8-1.16 2.49a15.09 15.09 0 003.11 3 4.43 4.43 0 004.84.1c.83-1.65.76-3.31-.79-4.47zM742.38 225.81c-2-1.29-3.41-3.75-6.45-3.26-.81 2.41.19 4.11 1.84 5.5 1.8 1.51 3.81 2.35 6.55.81-.72-1.18-1.09-2.48-1.94-3.05zM763.26 291.1c-.74-1.5-4.5-3.6-6.65-3.45-.28.42-1.05 1.05-1.08 1.71a4.8 4.8 0 006.39 4.76 2.23 2.23 0 001.42-2.82 1.19 1.19 0 00-.08-.2zM802.34 236.67c-.24-1.21-2.27-2.46-4-2.13a35.13 35.13 0 00-4.5 1.43 2.81 2.81 0 00.88 3.17 4.85 4.85 0 004.64.94c1.88-.6 3.22-2.08 2.98-3.41zM782.84 245.15a2.86 2.86 0 00.39-2.26 8.19 8.19 0 00-4-4.53 8.49 8.49 0 00-1.64-.32c-.42.65-1.27 1.4-1.36 2.25-.28 2.41 2.09 5.43 4.54 5.79a2.57 2.57 0 002.07-.93zM786.74 234.06c-2-2.18-3.25-5.23-7.3-6.44-.57 4.15 1.36 6.45 3.88 8.4 1.27.98 2.29.38 3.42-1.96zM789.8 296.42a3.88 3.88 0 00.69-.18c.53-.19.9-.74 1.24-1a4.48 4.48 0 00.1-.82c-.56-2-4.29-4.68-6.26-4.16a2.8 2.8 0 00-1.6 2.22 5 5 0 005.83 3.94zM764.88 272.29a2.81 2.81 0 002.23-.29 6.47 6.47 0 001.95-6.72 1.87 1.87 0 00-2.47-.94h-.07a7.44 7.44 0 00-2.81 6.52c.42.56.71 1.34 1.17 1.43zM797.46 268.51a5.34 5.34 0 00-5.28 1c-1.35 1-2.59 2.17-2 4.15a3.81 3.81 0 004.67-.06 19.33 19.33 0 003.64-3.24c.12-.2-.49-1.63-1.03-1.85zM741.57 233.47c-.43-.34-1.17-.28-2.22-.49-.43 1.08-1.45 2.39-1.13 3.12a5.53 5.53 0 005.56 3.35 2 2 0 001.52-.88 1.81 1.81 0 00-.06-1.69 32 32 0 00-3.67-3.41zM789.66 311.49a12.6 12.6 0 004.23.6c1.11 0 2-.49 1.76-2.14l-8.3-3.67c-1.04 2.9.31 4.37 2.31 5.21zM769.28 316.58a9.2 9.2 0 00-1.92 2.42 1.74 1.74 0 001.1 2.48 18.89 18.89 0 002.1.51 4.73 4.73 0 003.83-4.06 2.17 2.17 0 00-.45-1.68c-.85-.89-3.26-.76-4.66.33zM764.37 261a14.27 14.27 0 002.74-4.08c.3-.59.19-2-.18-2.17-.79-.41-2.21-.71-2.76-.28a7.57 7.57 0 00-3.17 7.23c1.23-.23 2.66-.1 3.37-.7zM780.52 254.55a1.31 1.31 0 00-.06-.27c-1.29-2.36-2.74-4.6-5.47-5.3-.37.25-.67.34-.71.48a5.54 5.54 0 003.76 6.87 5.6 5.6 0 001 .2 1.75 1.75 0 001.48-1.98zM756.06 218.26c-1.93 1.75-2.75 4.11-3.51 7 .87.27 1.32.58 1.65.48a6.27 6.27 0 004.74-6.48 2 2 0 00-1.14-1.33 2.07 2.07 0 00-1.74.33zM792.27 322.27a6.66 6.66 0 003 .16 2.53 2.53 0 001.61-1.55 2.34 2.34 0 00-.75-2.1 48.58 48.58 0 00-5.53-2.2c-.79 4.12-.45 5.16 1.67 5.69zM751.78 268.2c-.9-.08-1.91 1-2.94 1.54A7.73 7.73 0 00755 274a1.82 1.82 0 001.48-.79 2 2 0 00.19-1.7 6 6 0 00-4.89-3.31zM751.24 215.58a8.65 8.65 0 004.56-5.5 2 2 0 000-1.25c-.32-.72-.67-1.76-1.24-2a2.27 2.27 0 00-2.07.88 57.72 57.72 0 00-2 6.55c-.11.31.36.74.75 1.32zM740.28 216.88a2.29 2.29 0 00.93-3.1l-.1-.17a10 10 0 00-5-4.81c-.79 3.16-.5 5.47 1.39 7.47a2.23 2.23 0 002.78.61zM765 246.31c-4.77-.16-6.2 1-6.66 5.34 5.66-.11 6.06-.44 6.66-5.34zM761 298.36c-.21 2.15-.13 4.07 2.21 4.66a7.87 7.87 0 003.67-.27c.71-.2 1.27-1 2.44-2-3.44-2.05-5.54-3.35-8.32-2.39zM766.49 306.51a2.28 2.28 0 00-2.09.73 2.42 2.42 0 00.07 2.19 4.65 4.65 0 003.92 2.63 12.66 12.66 0 003.45-1 9 9 0 00-5.35-4.55zM791 225.67c.94-1.5.34-2.88-.58-4a21.58 21.58 0 00-3.66-3.16c-.73-.52-2.28.8-1.95 1.68a14.91 14.91 0 001.88 3.74 3.93 3.93 0 004.31 1.74zM761.57 242.91c1-1.53 2.16-3.12 1.54-5.1a1.65 1.65 0 00-1.46-.7 5.36 5.36 0 00-3.58 3.14c-.65 1.28-1.41 2.57-.21 4a3.1 3.1 0 003.71-1.34zM812.85 220.85a3.4 3.4 0 003.12-3.66 5.17 5.17 0 00-1.3-1.53 3.66 3.66 0 00-5 1.06 2.77 2.77 0 00-.62 1.7c.05 1.42 2.08 2.67 3.8 2.43zM796.12 202.5c-.59.35-.58 1.76-.8 2.69a4.71 4.71 0 00.22 1.13 8.08 8.08 0 00.35 1.28c.45 1.25 2.06 2 3 1.25a4.08 4.08 0 001.12-2.57c0-.71-.7-1.45-1.1-2.16-.68-1.06-1.34-2.45-2.79-1.62zM745.75 254a2.81 2.81 0 00-1 2.06 2.56 2.56 0 001.52 1.67c2.44.84 4.43.14 6.24-2.65-2.51-1.74-4.51-2.76-6.76-1.08zM746.27 264.59c2.58 2 4.88.92 7.83-.75-4.75-4.28-6.17-4.04-7.83.75zM771.14 273.84c-.8.47-1.55.66-1.78 1.11a28.26 28.26 0 00-1.87 4.48A1.69 1.69 0 00768 281a3 3 0 002.27.05 5.09 5.09 0 002.48-5.76c-.09-.61-1.06-1-1.61-1.45zM774.46 261.26c-.92 3.23-.32 5.43 2.38 6.71a2.62 2.62 0 002.24-.11 2.54 2.54 0 00.72-2.11c-.58-2.43-2.16-3.93-5.34-4.49zM793.28 215.94a1.89 1.89 0 000-.67c-.61-2.18-1.87-3.77-4.2-4.15-.52-.09-1.12.35-2.1.71.56 2.87 1.26 5 4 5.64a1.93 1.93 0 002.3-1.53zM774.17 330.45a1.76 1.76 0 001.11 1.19c1.24.28 2.33-.82 2.74-2.71a3 3 0 00-.07-1.8c-.19-.45-.82-.71-1.17-1a5.5 5.5 0 00-.81.15c-1.54.72-2.1 1.89-1.8 4.17zM758.71 184.51c-2 3.05-4 6.07-6.09 9.24l1.67 2.15 2-1.14a32.27 32.27 0 0114.07-4.76 52.1 52.1 0 0112.1 0c6.4 1 12.91 1.2 19.4 1.71.8.05 1.61-.09 2.42-.11l8.13-.19a47.29 47.29 0 006.07-.17c10.42-1.48 20.4-4.25 29.35-10a42.87 42.87 0 0010-8.8 25.45 25.45 0 002.41-3.75 1.54 1.54 0 00-.18-1.88c-.59-.63-1.25-.33-1.89-.2a2.94 2.94 0 00-1.11.46c-2 1.68-4.4 2.11-6.82 2.32-3.89.34-7.82.56-11.74.55-7.72 0-15.44-.5-23.14.46a66 66 0 01-6.88.57c-7.38.13-14.53 1.65-21.6 3.5-5.08 1.33-10.15 2.78-14.79 5.44-.09-.46-.28-.78-.19-.93 2.16-3.75 4.26-7.54 6.59-11.19 1.58-2.53 3.58-4.76 5.16-7.29a11.22 11.22 0 014.08-3.84c4.08-2.39 8.52-4.07 12.79-6.06 3.29-1.53 7-2.18 10.46-3.18 6-1.72 12.29-2.06 18.46-2.87 3.39-.44 6.9-.88 10.32.09v.06a.42.42 0 01.12 0h-.16c1.86-1.34 3.85-.52 5.8-.45 0 4.82.24 5.25 3.36 5.67a3.08 3.08 0 00.5-1c.12-1.31.12-2.66.16-4.25 3.66.51 7.5.06 10.85 2.38 1.16.8 2.34.37 3.4-.4.55-.4 1.18-.9.75-1.63a1.65 1.65 0 00-1.36-.63 19 19 0 01-6-.36c-3.07-.52-6.16-.87-9.27-1.19-6.36-.64-12.72-.17-19.07.06-4.46.16-8.93.26-13.24 1.62a7.66 7.66 0 01-2 .13c.13-1.61 1.87-2.94.41-4.46-3.45.43-3.79 3-4 5.68-3.6 1.24-7.26 2.33-10.75 3.75-2.22.89-4 .37-6.27-.6a21.26 21.26 0 011.8-2c5.07-4.27 10.06-8.64 15.26-12.73 5-3.92 10.23-7.58 15.4-11.3a14.75 14.75 0 015.8-3.06c.33.36.7.75 1 1.14a5.82 5.82 0 003.84 2 1.22 1.22 0 00.93-.56 1.32 1.32 0 000-1.13 6.21 6.21 0 00-1.23-1l-2-1.61c.22-.53.25-.88.44-1 4.22-2.62 8.2-5.75 13.51-6a5.1 5.1 0 004.75-2.72 4 4 0 00-4.63-.55c-2.21 1-4.37 2.12-6.66 2.94a37.41 37.41 0 00-8.63 4.47c-4 2.79-8 5.65-11.91 8.5-8.48 6.08-17 12.09-24.74 19.11-3.71 3.38-7.69 6.45-11 10.2-2.44 2.73-4.84 5.48-7.28 8.21a22.75 22.75 0 01-2.78 2.94c-1.18.9-1.19 2.76-3 3.32a11.49 11.49 0 01-.35-1.93A38.8 38.8 0 01773 155c1.28-4.85 2.7-9.66 4.17-14.44a93 93 0 003.33-13.79 50.37 50.37 0 00-.36-16.16 44.24 44.24 0 01-.35-14.11c.28-2.11.36-4.26.54-6.48-.71-.32-1.3-.6-1.92-.87a24.39 24.39 0 00-1.63 2c-4.94 7.62-9.89 15.22-13.73 23.45a36.28 36.28 0 00-3.67 11.15c-.47 4-.5 8.1-.65 12.16a18.77 18.77 0 00.33 2.8 26.72 26.72 0 01.4 3.22 91.88 91.88 0 002.54 17.24c.16.8.28 1.6.37 2.41.72 6.33-.61 12.41-2.41 18.4a10.41 10.41 0 01-1.25 2.53zm31.11-2c.59 0 1.19-.07 1.78-.12 2.29-.23 4.57-.4 6.84-.61 1.07-.09 2.12-.4 3.2-.45 6.2-.28 12.4-.51 18.6-.74a9.19 9.19 0 011.76.41 12.41 12.41 0 01-2 .74 95.84 95.84 0 01-21 1.92c-2 0-4-.11-6.07-.14-.79 0-2.38-.06-3.11-.91-.11.06-.05.05 0-.06zm1.52-32.08c.82 1.94.82 1.94-2.76 2.65.88-.83 1.79-1.68 2.76-2.61zm-22.23-21.83c0 7.85-.78 14.15-2 17.22-1-.9-.58-2-.58-3.06a34 34 0 012.58-14.12z"/><path class="cls-1" d="M805.89 141.46a21.54 21.54 0 00-3.59.18l-.89 2.53-3.17 1c-.24 1.36.15 2.2 1.37 2.11a6.23 6.23 0 002.53-.95c.3-.18.26-.94.38-1.45 1.18-.09 2.38-.11 3.56-.28a1.54 1.54 0 001.12-1.87c-.2-.51-.82-1.22-1.31-1.27zM823.65 149.81c.62 2 1.66 3.6 4.5 3.72a9.26 9.26 0 00-2.65-6.83c-1.86 1.3-2.26 1.83-1.85 3.11zM831 146.78c-1 .49-.95 1.47-.9 2.41a2.66 2.66 0 001.21 2.37 4.22 4.22 0 001.58.25 3 3 0 00.9-4 2.59 2.59 0 00-2.79-1.03zM824.27 119.47a2.7 2.7 0 001.36-3.57.3.3 0 000-.08 2.06 2.06 0 00-2.66-1.17 1.4 1.4 0 00-.3.15 2.74 2.74 0 00-1 3.45 2.39 2.39 0 002.6 1.22zM810.26 151.16a1.39 1.39 0 00-.74.47 3.6 3.6 0 00-.78 3.71c.32 1.27 1.27 1.94 3.1 1.69.18-1.36.36-2.54.45-3.7a2.85 2.85 0 00-.27-1.15 1.43 1.43 0 00-1.76-1.02zM804.27 133.55a2.07 2.07 0 002.55-1.39 4.71 4.71 0 00-.57-3.9c-.31-.52-1.46-.68-1.76-.17a10 10 0 00-1.19 2.51 2.88 2.88 0 00.97 2.95zM833.74 113.22c.57-.69 1.28-1.18 1.44-1.83.37-1.44 1.56-2.84.63-4.58a3 3 0 00-2.95 2.27 3.34 3.34 0 00.88 4.14zM797.9 137.62a1.45 1.45 0 002 .25l.09-.07a6 6 0 00.68-4.76c-.31-.09-.85-.42-1.26-.29a3.09 3.09 0 00-2.09 3.82 3.2 3.2 0 00.58 1.05zM838.12 145.91a3.08 3.08 0 00.41 3c.76 1 2 1.55 2.69 1.11a2.37 2.37 0 00.45-2.88 19.27 19.27 0 00-1.82-2.41 1.8 1.8 0 00-1.73 1.18zM832 140a1.8 1.8 0 001.46-.25 5.18 5.18 0 001.9-3.35 5.5 5.5 0 00-.14-1.07 4.31 4.31 0 00-1.65-.34 3.81 3.81 0 00-2.56 4A1.67 1.67 0 00832 140zM837.61 138.36c-.33 1 .26 1.47 1.92 1.66.89-1.68 2.48-3.07 2.36-5.78-2.63.53-3.63 2.17-4.28 4.12zM803.55 150.63a3.21 3.21 0 00-1.17 4.39 2.45 2.45 0 00.26.37 3.17 3.17 0 00.86.53 1.87 1.87 0 00.52-.12c1.12-.77 1.94-3.58 1.2-4.66a1.75 1.75 0 00-1.67-.51zM816.88 135.89a1.21 1.21 0 000-1.71 4.81 4.81 0 00-4.55-.33c-.22.36-.63.7-.59 1a1.8 1.8 0 00.65 1.28 4.2 4.2 0 004.49-.24zM816.23 150.42a2.46 2.46 0 001 2.81 12.64 12.64 0 002.73 1.53c.15.06.9-.62.92-1a3.46 3.46 0 00-1.72-3c-.85-.6-1.83-1.1-2.93-.34zM828.07 115.86a1.18 1.18 0 001-.4 19.26 19.26 0 001.29-2.94c.12-.33-.08-.77-.18-1.46-.73 0-1.74-.37-2.11 0a3.58 3.58 0 00-.88 4.07 1.36 1.36 0 00.88.73zM793.23 157.56a3.13 3.13 0 000 .53 8.23 8.23 0 00.52 2.68c.21.68.71 1.08 1.68.62.14-1.85.31-3.79.47-5.8a2.34 2.34 0 00-2.67 1.97zM786.1 150.18a1.35 1.35 0 00.91-.63c.38-.69-.23-2.13-1.17-2.74a5.64 5.64 0 00-1.87-.66 1.12 1.12 0 00-1.26 1 1.7 1.7 0 000 .22 13 13 0 00.13 1.4 3 3 0 003.26 1.41zM822.84 132.35c.08-.56 0-1.47-.41-1.71a4.86 4.86 0 00-5.08-.4c.4.69.62 1.59 1.16 1.89a8.72 8.72 0 003 .8c.49.07 1.29-.32 1.33-.58zM825.76 140.58a1.13 1.13 0 00.18-.12c1.15-1.28 2.22-2.62 2.06-4.43-.22-.17-.34-.33-.44-.33a3.56 3.56 0 00-3.36 3.74 3.19 3.19 0 00.09.63 1.1 1.1 0 001.47.51zM843.21 119.07a1.3 1.3 0 00-.58-1 8.49 8.49 0 00-5-.65c0 .58-.07.92.06 1.09a4 4 0 004.92 1.52 1.25 1.25 0 00.6-.96zM787.22 162a4.24 4.24 0 00.56 1.86 1.57 1.57 0 001.27.65c.41-.05 1.07-.53 1.12-.89a32.38 32.38 0 00.17-3.81c-2.68.31-3.24.73-3.12 2.19zM809.4 129.9a1.28 1.28 0 001.07-.25 3.84 3.84 0 001-3.63c-.13-.57-1-1-1.56-1.46a5 5 0 00-1.31 4.6 1.24 1.24 0 00.8.74zM848.25 113.71a38.16 38.16 0 00-4.41.16c-.16 0-.32.38-.59.74a5.56 5.56 0 004.29 1.61 1.26 1.26 0 00.76-.27c.36-.34.93-.78.92-1.16a1.49 1.49 0 00-.97-1.08zM842.23 108.16l.08-.1a6.49 6.49 0 001.86-4.06c-2.09.18-3.42.84-4.25 2.41a1.42 1.42 0 00.24 1.83 1.47 1.47 0 002.07-.08zM827.53 129.44c-.91-2.91-1.9-3.54-4.63-2.91 1.23 3.37 1.52 3.57 4.63 2.91zM795.46 143.48c.5-2.5.85-4-.32-5.54-1.35.33-2.5.78-2.36 2.31a5 5 0 00.93 2.17c.29.4.89.58 1.75 1.06zM789.73 147.19a5.76 5.76 0 001.62-4.2 1.49 1.49 0 00-.88-1.11 1.6 1.6 0 00-1.32.49 3.06 3.06 0 00-.76 2.95 8.52 8.52 0 001.34 1.87zM847.49 136a10 10 0 00-1.86 1.93 2.51 2.51 0 00-.12 3 2.05 2.05 0 002.28-1.19 12.42 12.42 0 001.14-2.89c.15-.63-.93-1.28-1.44-.85zM832.27 126.48a1.09 1.09 0 00.13-1 3.54 3.54 0 00-2.67-1.51c-.9-.13-1.85-.31-2.46.72a2 2 0 001.59 2c1.14.22 2.35.58 3.41-.21zM853.69 150.27c-.85.3-1.17 1.8-.67 2.78a2.18 2.18 0 002.85 1.14 3.24 3.24 0 00.65-1.1 2.35 2.35 0 00-1.7-2.81 1.77 1.77 0 00-1.13-.01zM857.34 142a2.61 2.61 0 001.8.14c.44-.13.74-.73 1.07-1.12.52-.61 1.23-1.3.4-2-.33-.29-1.17 0-1.78.09-.13 0-.24.12-.65.36-.24.15-.48.31-.7.48-.66.58-.81 1.72-.14 2.05zM819.59 123.67c.51-1.86.71-3.26-.75-4.3a1.76 1.76 0 00-1.48-.2 1.64 1.64 0 00-.69 1.28c0 1.65.86 2.72 2.92 3.22zM814.61 126.5c1.58-3.77 1.16-4.58-2.11-4.58-.7 2 .5 3.15 2.11 4.58zM811.63 140.22c.31-.18.34-.85.5-1.28-.45-.38-.73-.8-1-.85a19 19 0 00-3.11-.19c-.3 0-.81.41-.81.65a2 2 0 00.45 1.38 3.29 3.29 0 003.97.29zM818.86 142.47c1.35-.85 1.93-2.13 1.58-4.17-2.15.14-3.34 1-3.55 2.86a1.64 1.64 0 00.54 1.32 1.54 1.54 0 001.43-.01zM850.47 139.11a1.23 1.23 0 001.82.91 3.27 3.27 0 001.63-3.41c-.06-.32-.45-.6-.88-1.12-1.61.95-2.78 1.83-2.57 3.62zM778.46 152.69a1.16 1.16 0 00-.49.92c.11.82 1 1.24 2.22 1.09a2.1 2.1 0 001.1-.42c.22-.21.25-.65.32-.91a2.59 2.59 0 00-.26-.46c-.77-.79-1.58-.91-2.89-.22zM673.83 283.46c-7.25-15.54 1.58-13.35-12.28-37.91-1.37-2.41 2.4-8.62.55-10.41-7.67-7.47-16.44-7.06-29.47-6.84-15.66.28-36.23 1.5-51.94 4.93-31.9 7-59.23 40.23-57.23 24.46s63.26-53.36 86-53.33 29-1.24 29-28.29-30.91-28.49-41.85-34.66-13.81-14.87-24.61-27.26-16.29-9-24.32-1.06-3.4 8.52-29.26 2.1c-8.66-2.15-23.6 6.77-32.33 8.94-7.55 1.85-9.1-3.67-14.34 2.19-6.75 7.55 1 20.94-2.81 34.33-8.2 28.53-11.93 39.88-5.38 59.74 1.63 5 3.15 21.1 4.42 24.72 6.38 18.17 9.34 18.6-3.85 3.45s-28.47-77-32.73-98.2c-5.08-25.31-11.52-44.08-7.4-50.4s17 11.12 23.86-2-9.55-18.73-12.75-30.48 10.28-21.64-4.85-31.17-17.58 9-24.83 7.48-1.34-13-16.82-13-8.46 26.16-18.07 33-30.22 13.39-10.76 24.39 16.42 10 14 18.35-3.39 25.46 18 12.44 18.3-7.19 19.82 23.82c.64 12.91 1.6 24.71 5.38 39.72 4.85 19.34 15.64 37.93 21.41 56.11 9.63 30.21 17.49 56 4.43 23.44-.62-1.52-8.11-11.86-8.71-13.36-12.11-30.1-22.96-36.61-49.11-54.32-12-8.13-31.67-1.1-44.45 1.3-16.45 3.1-25.1 4.13-29.09 14.22-7.08 17.89-19.81 16.94-27.83 23.38s-17.16 12-11.93 27.86 5.12 30.29-6.44 47.14c-8.89 13 .69 30.18 3.8 37.74h42.51c14-9.35 24.37-21.16 42.54-28.88a157.48 157.48 0 0164.35-12.6c30 .59 0 4.16-35.58 11.66-16.38 3.45-40.42 19-52.86 29.82h58.74c8.49-4.81 17.37-8.38 24.09-8.08 7 .3 4.17 3.73-2.39 8.08h107.4c-8.51-7.62 2.2-4.57 12.36 0h53.72c-4.72-4.14-9.66-8.39-14.12-12.4-13.6-12.18-18.21-16.92-8.11-13.46 14.31 4.9 28 15 40.42 25.86H662c3.34-7.8 10.28-10 21-15.87 9.67-5.22-1.66-15.84-7.74-28.19-2.83-5.83.9-13.49-1.43-18.5zM376.53 77.75c12.12-8.2-.55-10.75 5.21-18s7.21 4.08 6.15 13.39-11.36 4.61-11.36 4.61zm21.39 16.42c-2.48 2-2.58 3-3.69 4a1.87 1.87 0 01-1.13 1.67c-.46.23-1.43-.42-.42-1.29 2.15-9.86-13.37-6-5.86-10.55 7.77-4.71 23-3.5 11.1 6.17zm10.24-22.6c-10.73 11.12-17.4-.26-17.4-.26 15.36-4.81.42-4.2 9.72-10.93s18.4.1 7.68 11.19zm10.52 1.32c10.53 1.28 2.93 11.74 2.93 11.74-10.11 7.06-13.45-13.06-2.93-11.74zm-59.57 205.56c-25.32-2.36-51.74 26.83-51.74 26.83-23.24 18.77 10.64-48.14 55.17-36.89 44.55 11.25 21.89 12.43-3.43 10.06zm36.5-23.32c-5.28-2.69-8.48-7.69-16.19-11.82a108 108 0 00-18.93-8.31c-30.11-10-31.22-25.83 5.06-9 37.58 17.4 39.91 34.12 30.06 29.13zm178.31-86.58c5.31-2.41 2-8.45 9.17-.93s-17.36 23.56-29.26 28.62S519 235.36 519 235.36c1.52-5.4 2.22-20.42 9.76-28.54s39.86-35.82 45.16-38.27zM443.7 297.45c-5.07-2.9-10.84-6-10.84-6 20.85-4.8 15.9 8.9 10.84 6zm2.76 38c.86-13.81 2-15.28 5-14.67 15.07 3.02-5.68 25.51-5 14.68zm30.44-18.3a106.33 106.33 0 01-17.64-9.43c-9.61-3.91 6.7-2.32 16.51-1.61 4.9.35 3.56-4.65 2.85-9.12s-.74-8.44-.07-9.59c1.71-2.94 7.82-4.28 10.65-.14 2 3-.06 6.65.36 12.2.3 3.72 2.1 9.46-.3 13.55-2.93 4.99-10.35 4.99-12.36 4.15zm16.9 22.42s-6.25-6.48-9.17-10.26.86-8.42 6-5.07 3.17 15.34 3.17 15.34zm1.46-115.06c.32-3.49.78-22 2.37-26 10.27-25.6 10-40.05 13.53-52 .95-3.21 10.76-2 11.6 1.63.9 4-7 23.11-9.34 30.17-7.28 22.17-14.11 52.77-14.11 52.77-4.31 12.82-5.79 12.08-4.05-6.56zm.88 48.77c-1.19-11.45 7-17.92 8.41-8.58 1.45 9.39-8.41 8.59-8.41 8.59zm20.65 46.85s-1.77 4.55-14.62-5-3.78-6.31 6.5-4.18 8.12 9.19 8.12 9.19zm5.63-34.3c-3.3 4.94-19.85 3.58-19.85 3.58 2.54-4.73-.17-7.18 14.26-5.5a40.09 40.09 0 007.1.34 6.3 6.3 0 00-1.51 1.59zm1.51-1.58c2.16-1.56 3.94-.26 0 0zm73.14 16.05c-17.54-9.2-46.51-6.61-46.51-6.61-20.67 3.52 9.1-14.05 62.53 4.31 37.3 12.82 24.91 23.79-16.02 2.31zm53.25-21.3s-66.52-11.9-98.07 0-14.65-1.75 1.65-7.77c16.29-6 58.59-7.2 66-4.46s40.48 2.53 30.42 12.23zM671.17 198.88c.52-.07.68.54 1.05.71s.66.13.88-.47c-.57-.78-1.11-1.58-1.6-2.41a38.61 38.61 0 01-4-12.92c-.35-2.58-.13-5.17-.34-7.73a22.37 22.37 0 01.42-6c.4-2 .78-3.92 1.3-5.83a44 44 0 001.65-10.13 26.86 26.86 0 00-.76-7.94 47 47 0 01-1.81-8.63 21.39 21.39 0 01.81-8.78c.39-1.17.7-2.36 1.1-3.52a22.76 22.76 0 016.5-9.45 7.53 7.53 0 001.36-1.71 17.14 17.14 0 015.42-5.13 95.3 95.3 0 0110.93-6.15c1.5-.67 2.84-2.7.5-2a6.47 6.47 0 00-2.23 1c-2.82 1.59-5.63 3.15-8.43 4.76a22.16 22.16 0 00-6.16 4.53A27.5 27.5 0 01675 114a21.54 21.54 0 00-4.32 5.24c-1.26 2.06-2.55 4.08-3.72 6.2a30.42 30.42 0 00-3.76 12.68 49 49 0 00.52 12.28c.3 1.59.35 3.24.57 4.85a19.29 19.29 0 01-.26 6.56c-.67 3.45-1.41 6.89-2.09 10.33a45.55 45.55 0 00-1 9.6c.08 5.55 1.57 10.57 5.35 14.4 1.38 1.4 2.71 2.98 4.88 2.74zM723.5 181c-3.75.12-7.85.93-11.59.42-3.37-.44-6.51 0-9.92 0-1.18 0-4.62.28-5 .32a29 29 0 00-11.79 3.38 22.24 22.24 0 00-9.25 9.18c-.69 1.3-.95 2.83-1.84 4a.88.88 0 001 .15 19.21 19.21 0 006.57-3.68 13.53 13.53 0 002.52-2.38 20.6 20.6 0 0117.18-8.39c4.6 0 9.14.64 13.74.74 2.19 0 4.39.25 6.59.39a24.69 24.69 0 0011.23-2.24 34.35 34.35 0 008.17-4.53c3.25-2.38 10.31-11.09 9.58-11.54-.67-2.24-3.61 1.82-5.11 3.49a36.16 36.16 0 01-10.5 8c-2.32 1.18-4.65 2.42-7.26 2.6-1.44.09-2.88.09-4.32.09z"/><path class="cls-1" d="M636.82 157.18c2.34 1 4 3.15 5.93 4.9a25.74 25.74 0 013.89 4.51 48.55 48.55 0 014.68 7.8 20.06 20.06 0 001.87 3.44 19.29 19.29 0 012.48 5.3 60.61 60.61 0 003.47 8.28 7 7 0 00.83 1.42c1 1.31 2 2.56 3 3.89a19.54 19.54 0 003.76 3.2 53.59 53.59 0 01-4.48-5.82 9.26 9.26 0 01-.85-1.41 27.45 27.45 0 01-2-8.83c-.07-1.64 0-3.26-1.23-4.46-.17-.17-.15-.54-.26-.8-1.59-4-2.85-8.16-5-11.9a18.11 18.11 0 00-5.94-6.54c-2.28-1.48-4.7-2.7-7-4.07a21.16 21.16 0 01-4-2.56 8.22 8.22 0 01-3-6.6c.16-2.53.72-4.83 2.61-6.44a.92.92 0 00-.88.23 18.83 18.83 0 00-2.56 3.58 6.85 6.85 0 00-.68 4.4c.72 3.68 2.96 6.16 5.36 8.48z"/><path class="cls-1" d="M635.66 140.41l-.08.09h.06zM683.72 151.88v.06-.06zM672.82 195.46v.07c.14-.43.3-.86.43-1.29v-.08a6.72 6.72 0 00.28-4.13c.58-2.78 0-5.5-.26-8.23a7.36 7.36 0 010-1.15c.25-4.47.22-9 1-13.41a35.47 35.47 0 012.45-8.69c.87-1.85 1.76-3.71 2.62-5.55.45-.93.84-1.88 1.35-2.78a6 6 0 012.53-2.72 1.11 1.11 0 011.22 0 1.35 1.35 0 01.41 1.53c-.3 1-.71 1.87-1.09 2.81.48.23.77-.15 1-.45a10.74 10.74 0 002.47-5.51 3.75 3.75 0 00-1.18-3.56 3.47 3.47 0 00-3.79-.87 9.36 9.36 0 00-5.27 5c-2.88 5.74-4.34 12-5.49 18.36a63.5 63.5 0 00.32 22.21 35.8 35.8 0 01.64 7.08c.04.51-.1 1.02.36 1.36z"/><path class="cls-1" d="M680.28 163.85a48.36 48.36 0 00-4.23 8.49c-.6 1.38-.21 2.83-.39 4.24a34.54 34.54 0 00.2 9.14 1.8 1.8 0 00.77 1.69 34.65 34.65 0 012.84-5.56 4.15 4.15 0 00.78-1.8 16.93 16.93 0 011.53-5.44c1.57-4.33 2.81-8.85 5.46-12.6a69 69 0 014.69-7.21 10.52 10.52 0 002.12-3.15 18.49 18.49 0 001.25-5.23c0-.51.19-1.14-.53-1.43a24.47 24.47 0 00-1.49 2.64 26.66 26.66 0 01-5.6 8 52.63 52.63 0 00-7.4 8.22zM696.25 163.6c.16.25.44.19.75-.09a5.77 5.77 0 01.76-4.47c1-1.58 2.56-1.95 4-.8a5.45 5.45 0 012 3.22 3.89 3.89 0 01-.32 2.74 7 7 0 01-3.78 3.6 42.78 42.78 0 00-8.15 4.67 34.23 34.23 0 00-6.53 5.9c-1 1.1-1.81 2.29-2.72 3.41-.4.5-.87.9-1.22 1.43s-1.9 2.56-1.73 3.38c.44.2.62-.2.86-.45.57-.56 1.07-1.23 1.69-1.73a26.75 26.75 0 0110.22-5.61 3.7 3.7 0 001.94-1.26 82.71 82.71 0 017.56-7.65c1.79-1.72 3.66-3.33 4.61-6a6.45 6.45 0 00-2.82-8.08c-3-1.54-6.44 1.11-7.28 3.41a4.94 4.94 0 00.16 4.38zM699.76 177.55c-.48.44-1.15.81-1.2 1.82 1.28.44 2.51-.12 3.79-.15a41.31 41.31 0 0112.43-10.73c2.63-1.57 5.17-3.31 7.71-5.06a17.49 17.49 0 005-4.85 11.8 11.8 0 011.53-1.93 15.34 15.34 0 003.07-5.21c.44-1.13.83-2.3 1.22-3.46a23.07 23.07 0 00.38-11.58 3.7 3.7 0 00-2.67-3.19c.18.06.12 1 .22 1.24.21.55.42 1.09.58 1.65a16.87 16.87 0 01.71 7 29.78 29.78 0 01-1.83 6.93 22.76 22.76 0 01-1.83 4 18.17 18.17 0 01-5.75 6.23c-3.33 2-6.29 4.17-9.49 6.47-1.21.87-7.28 5.24-7.54 5.47-2.15 1.8-4.25 3.52-6.33 5.35zM694.06 190.8c1.29-1.37 2.43-2.9 3.64-4.35-.51-.57-1-.3-1.48-.16a20.26 20.26 0 00-9.36 6.65 19.4 19.4 0 01-10.05 6.84c-.37.1-.86.1-.95.7.93.77.93.77 1.5.7a20.29 20.29 0 0011.45-5 63.48 63.48 0 005.25-5.38zM674.39 217.29c0-2.55-.19-5.13-.28-7.68a18.58 18.58 0 00-.77-3.9.55.55 0 00-.6-.4 1.91 1.91 0 00-.1.52 64 64 0 01.14 12c-.18 3.12-1 9.23-1.18 12.37 0 .56 1 .77 1.36-1.92 0 0-.05 0 0 0a16.75 16.75 0 01.6-3.91 40.79 40.79 0 00.83-7.08zM693 143.76a1.4 1.4 0 00-1.79.62 5.91 5.91 0 00-.67 1.52c-.38 1.44-.71 2.9-1.09 4.56.53-.05.75 0 .84-.09a18.47 18.47 0 003.33-5.29 1 1 0 00-.62-1.32zM678.16 202.79c-.85-.4-2-1.19-2-.88a4.57 4.57 0 002.31 2.8 5.37 5.37 0 002.54.33c1.26-.17 3-.89 3.22-.85.23-.26-1.79-.52-2.54-.62-1.16-.91-2.16-.39-3.53-.78zM681.93 210.59c4.28 2.41 0-.75-1.32-1.6a7.3 7.3 0 01-2.88-3.17c-.54-1.33-2.89-3.23-2.89-3.23-.75-.27-1-.36-.9 0 .95 3.41 4.14 5.84 7.99 8zM669.8 202.41c-.16 0-.8-.61-4 0s-3.3-.33-4.82-1.47.77 1.93 3.76 3.09 6.88.5 7.28-.28.34-1.23-2.22-1.34zM999.83 339.16c.26-.2.37-.49.07-.92a22.86 22.86 0 01-2.47.32 29.4 29.4 0 01-11.12-2.09c-2-.77-3.78-2-5.71-2.9a16.22 16.22 0 01-4.14-2.77c-1.22-1.12-2.43-2.24-3.59-3.43a32.63 32.63 0 00-6.51-5.5 20.15 20.15 0 00-6.08-2.62 35.32 35.32 0 01-7-2.07 15.49 15.49 0 01-5.93-4.24c-.65-.8-1.37-1.53-2-2.32a18.8 18.8 0 01-3.81-9.13 6.26 6.26 0 00-.6-1.8 15.43 15.43 0 01-1.21-6.5 95.87 95.87 0 01.62-11.36c.2-1.48-.65-3.39-1.17-1.2a5.76 5.76 0 00-.35 2.21c-.14 2.92-.32 5.84-.45 8.77a20.93 20.93 0 00.43 6.83 27.45 27.45 0 01.82 3.45 18.16 18.16 0 001.78 5.65c.89 1.85 1.77 3.73 2.75 5.54a23 23 0 007.39 8.22 36 36 0 009.07 4.6c1.29.41 2.49 1.06 3.75 1.53a14.74 14.74 0 014.61 2.88c2.17 2 4.3 4 6.46 5.94a34.61 34.61 0 006.44 4.72c4 2.2 8.33 3 12.83 1.57 1.61-.54 3.4-1 4.2-2.84.09-.44.62-.32.92-.54zM1012.33 262.23c-1.93-.36-.36 3.68.15 5.56a33.82 33.82 0 01.93 11.77 19.42 19.42 0 01-1.47 6.94c-.59 1.21-1.25 2.38-1.89 3.55-1.62 3.09-2.94 6.75-5 9.56a69 69 0 00-4.56 8c-.54.95-1.94 3.87-2.11 4.22a29.85 29.85 0 00-3 10.92 19.73 19.73 0 002.35 11.25c.62 1.09 1.6 1.92 2 3.12a.94.94 0 00.6-.8 18.42 18.42 0 00.37-6.82 11.92 11.92 0 00-.55-3c-2.16-6.05-1.27-11.83 1.85-17.35 2.08-3.72 4.67-7.13 6.85-10.81 1-1.74 2.2-3.45 3.31-5.17a25.2 25.2 0 003.55-10 32.78 32.78 0 00.5-8.45c-.21-3.63-3.21-12.89-3.88-12.49z"/><path class="cls-1" d="M965 304.52a3.51 3.51 0 00-2.37 2.71 8.42 8.42 0 001.19 6.3c2.79 4.7 6.64 8.42 10.69 12a46.56 46.56 0 0016.11 8.82 25.81 25.81 0 015.4 2.39c.3.2.63.51 1.06.28-1-1.21-1.9-2.54-3.6-2.86-1.72-1.61-4-2.25-6-3.16a6.9 6.9 0 01-.85-.45c-3.08-2-6.33-3.84-9.17-6.28a26.15 26.15 0 01-5.13-5.53c-1-1.46-1.86-2.93-2.8-4.4-.47-.74-1-1.46-1.37-2.23a5.17 5.17 0 01-.8-3.16 1.12 1.12 0 01.6-1 1.08 1.08 0 011.3.28c.54.65 1 1.36 1.5 2.05.4-.29.25-.69.16-1a8.48 8.48 0 00-2.83-4.28 2.89 2.89 0 00-3.09-.48zM970.85 310.33z"/><path class="cls-1" d="M976.7 304.89a9.26 9.26 0 00-1.3-3 14.71 14.71 0 00-3.2-3.15c-.35-.23-.74-.62-1.28-.14a22.71 22.71 0 001.22 2.28 22.05 22.05 0 013.15 7.79 46.86 46.86 0 002.53 9.37 39 39 0 004.16 6.89c.72 1 1.94 1.32 2.87 2a25.68 25.68 0 006.66 3.59 1.44 1.44 0 001.58.07 27.53 27.53 0 01-2.69-4.59 2.77 2.77 0 00-.95-1.35 14 14 0 01-3.2-3.48c-2.39-3-5.08-5.89-6.54-9.57a55.07 55.07 0 01-3.01-6.71zM1007.9 341.73a13.79 13.79 0 00-3.14-1 .53.53 0 00-.58.32 1.53 1.53 0 00.34.3A46.08 46.08 0 011013 346h2.58a23 23 0 00-2-1.39c-1.83-1.05-3.79-1.9-5.68-2.88zM969.31 299.44l-.09.08a1.39 1.39 0 00-.38 1.7 5.4 5.4 0 00.79 1.16c.86.9 1.76 1.76 2.77 2.76.22-.46.36-.61.33-.72a15.49 15.49 0 00-2.27-4.85.82.82 0 00-1.15-.13zM1006.4 336.15a5.46 5.46 0 001.42-1.91c.44-1.08.72-2.79.87-3-.09-.28-1.21 1.24-1.62 1.81-1.22.59-1.3 1.62-2.22 2.58-.67.52-1.78 1.14-1.53 1.22a3.89 3.89 0 003.08-.7zM1010.46 336.21a6.35 6.35 0 01-3.62 1 10.75 10.75 0 00-3.64 1c-.55.48-.73.67-.41.75 2.87.6 6.1-1 9.42-3.22 3.7-2.42-.56-.22-1.75.47zM1000.74 342.27c-.08.13-.81.4-1.86 3.24a4.74 4.74 0 01-.24.51h1.83c1.62-1.94 2.55-4.44 2.23-5s-.7-.79-1.96 1.25zM514.33 36a21.08 21.08 0 005.12 5.37c5.83 3.8 11.37 8.08 17.76 11 7 3.22 15.62 14.06 20.83 10.9.43-1 .72-1.46 1-2.05a38.1 38.1 0 00-4-6.35c-2.95-4-5.81-8.11-8.62-12.23A77.92 77.92 0 00534 29.08c-4.21-3.83-9.46-4.73-14.91-3.94A6.8 6.8 0 00514.33 36zM566 21.73c1.19 5.15 2.3 10.34 3.41 15.52.87 4 1.68 8.12 2.54 12.17a7.56 7.56 0 003 4.67 10.44 10.44 0 00.61-1.73c.6-5.73.94-11.56 1.83-17.18a102 102 0 00.61-21.32 29.25 29.25 0 00-1.92-8.7c-1.34-3.65-4-4.63-6.69-5.1-2.35-.42-3.82 1.33-4.87 3.6a14.09 14.09 0 00-.75 9.38c.68 2.96 1.54 5.77 2.23 8.69zM513.55 58.82c2.19.75 4.38 1.56 6.54 2.4 8.52 3.26 17 6.63 25.59 9.83a31.25 31.25 0 006.32 1.33c.44.07 1.23-.57 1.44-1.06a2 2 0 00-.2-1.8 12.84 12.84 0 00-2.73-2.07c-1.42-.86-3-1.47-4.35-2.39-9-6-18.5-11.1-27.83-16.47a19.24 19.24 0 00-8.58-2.32c-3.05-.21-5.07 1.06-6 4.11 2.07 4.62 5.56 6.94 9.8 8.44zM543.67 30.16a80.82 80.82 0 0110.66 12.48c2.54 3.71 4.93 7.52 7.36 11.3 1.52 2.39.76 1.4 3.07 3.14 0 0 1 .43 1 .45.7.17 2-.6 2-.6 1.07-.7 1.51-1.43.73-3.38-1.92-4.76-3.49-9.69-5.12-14.57-2.14-6.48-4.13-13-6.33-19.46-1.66-4.9-5.38-7.88-10-9.89a7.36 7.36 0 00-5.83-.42c-5.24 2.11-8.06 8.15-4.36 13a72.76 72.76 0 006.82 7.95zM576.31 60.25a1.82 1.82 0 00-.42.36 20.18 20.18 0 00-2 2.35c-.17.24-.38 1.18-1 .89-.86-.61-1.23-1.47-3-1.24 0-.08-2.36 1-2.28 1.21-1.2.95 1.13 1.25-.7 3.12-1.7.43-1.4-1.31-3.28-.75-4.16 2.07-1.32 4.74-1.79 5.15-.25.21-2.2-.64-2.46-.44-1.93 1.5-2.22 2.85-.64 4.46a15.94 15.94 0 003.92 3 33.1 33.1 0 017.92 6c1.68 1.61 3.21 3.41 5 4.86a16.75 16.75 0 014.53 5.2 43.19 43.19 0 003.37 5 7.73 7.73 0 002.14 2c.12.08 2.24.38 2.94 1.62 1.84 3.27 7.3 11.41 10.9 17.83 4.94 8.79 9.23 16.23 9.61 16.24 1.15 0 3.43-2.34 2.63-3.62-2.07-3.28-6.32-9-9.94-15.54-3.4-6.19-7.92-13.06-10.07-17a2.24 2.24 0 010-2.61 6.65 6.65 0 00-1.38-5.16c-.54-.64-1-1.32-1.49-2-5.07-6.9-8.25-14.41-7.94-23.15a15.5 15.5 0 00-.15-3.47 13.32 13.32 0 00-1.45-3.66 2.2 2.2 0 00-2.97-.65zM680.19 256.56c3.16 6.2 5.86 12.67 9.92 18.39 4.46 6.28 6.57 20 12.67 19.83.85-.64 1.35-.92 1.87-1.3a37.54 37.54 0 00-.33-7.49c-.57-5-1-9.93-1.4-14.9a77.43 77.43 0 00-4-18c-1.75-5.43-5.85-8.83-11-10.86a6.8 6.8 0 00-9 3.46 6.73 6.73 0 00-.53 3.62 20.7 20.7 0 001.8 7.25zM1381.32 234.52a12.15 12.15 0 002.83-1.94c1.24-1.07 2.33-2.37 3.62-3.4 8.51-6.63 16.29-14.13 24.28-21.35a19.24 19.24 0 004.86-7.44c1.16-2.84.58-5.16-2.05-7-5 .62-8.35 3.2-11.07 6.77q-2.1 2.78-4.31 5.48c-5.76 7.09-11.58 14.13-17.27 21.27a29.91 29.91 0 00-3.22 5.56 2 2 0 00.55 1.7 2.1 2.1 0 001.78.35zM1265.35 144.78a47.87 47.87 0 00-7 3.38c-.88.75-1.76 1.51-2.58 2.31a.68.68 0 01-.12.12 1.31 1.31 0 00-.2.28 44.46 44.46 0 00-2.59 4.16c-1 1.13-1.94 2.28-3 3.38a10.22 10.22 0 00-.84 1 10 10 0 00-.48 1.05c-.36.76.16 1.14-.53 1.5-1.65.83-1 .2-2.46 1.35s-3.13 2.61-4.54 3.76a29.57 29.57 0 00-3.9 3.77c-.26.32-4.72 5.66-9 11.86-5.54 8-6.53 11-6.72 11.43.56.53.46 1.39 1.51 1.58.54-.73.46-4.4 6.21-12.67a103.6 103.6 0 0110.38-12.62 87.53 87.53 0 017.7-6.15c.5-.32 1-.61 1.55-.93a.57.57 0 00.13-.08h.06a3.35 3.35 0 01.72-.45l.2.16a1.75 1.75 0 001.6.33c.62-.2 1.08-.86 1.59-1.24a12.12 12.12 0 014.17-1.89 17.92 17.92 0 007.9-4.66 17 17 0 002.3-2.71 15.64 15.64 0 001.5-3.11 9.09 9.09 0 00.77-3.88 4 4 0 00-4.33-1.03zM1500.59 232.58c2.09-3.37 3.81-7 6.08-10.27a66.28 66.28 0 016.38-8.18 9.31 9.31 0 001.39-2c1.34-2.22 2.44-4.6 4.28-6.54a29.3 29.3 0 0117.28-9 13 13 0 001.86-.34c1.83-.59 3.08-3.22 2.27-4.88a4.49 4.49 0 00-3.82-2.83 12.57 12.57 0 00-3.77.24 20.9 20.9 0 00-9.81 5.42c-2.17 2.14-4.26 4.34-6.42 6.5a103 103 0 00-8.12 9.58c-1.51 1.92-2.4 4.19-3.8 6.14a36 36 0 00-3.43 6.38c-1.28 2.88-2.46 5.8-3.66 8.7a9.15 9.15 0 00-1.1 3.6 1.86 1.86 0 01-.71 1.32c-.77.79-.57 1.63 0 2.78a59.42 59.42 0 005.1-6.62z"/><path class="cls-1" d="M1264.89 272.08a3.33 3.33 0 00-.51-.16 36.74 36.74 0 00-6.08-1 120 120 0 00-60.37 10.08c-6 2.73-12.23 5.19-18.4 7.67a68.47 68.47 0 01-8.48 2.81 13.26 13.26 0 01-4.7 0 2.07 2.07 0 01-1.46-2.53 2.11 2.11 0 01.39-.76 17.89 17.89 0 013.9-2.65c8.69-4.25 17.86-7.19 27.1-9.91 14.92-4.4 26.45-13.32 35.54-25.71a55 55 0 007.31-13.18 125.78 125.78 0 0110.87-23 24.79 24.79 0 001.7-4.1c-.68-.62-1-1.11-1.35-1.2a12.79 12.79 0 00-3.35-.44c-16.67.49-31.4 5.68-43.38 17.77-5 5-10.31 9.75-15.63 14.47a29.84 29.84 0 01-5.75 3.67 1.81 1.81 0 01-2.52-.39 1.77 1.77 0 01-.3-.69c.5-2.56 2.73-4 4.31-5.91 7.64-9 13.7-19 16.65-30.52a348 348 0 007.2-39.22c.59-4.32.93-8.66 1.29-13a2.29 2.29 0 00-1.64-2.79h-.2l-2.53 1.78c-4.3 3.06-8.56 6.13-12.87 9.15-2.82 2-5.7 3.85-8.54 5.78a25.15 25.15 0 00-7.43 8 70.89 70.89 0 00-7.46 16.9c-2.62 8.85-3.48 18-5.18 27-.73 3.83-1.8 7.58-2.87 11.31-.2.7-1.1 1.2-1.67 1.8-2.33-1.68-2.07-3.93-2-5.87.24-7.32.58-14.65 1.11-22 .33-4.37.77-8.71-.29-13a92.76 92.76 0 00-11.34-26.44 16.53 16.53 0 00-2.96-2.8c-2.87 2-4 4.82-5.51 7.33-1.61 2.76-2.91 5.71-4.39 8.56-1.35 2.65-2.87 5.22-4.08 7.95-1.3 2.92-2.38 6-3.45 9-1 2.81-1.94 5.64-2.79 8.5-.91 3.07-1.63 6.2-2.55 9.28-.69 4.22-.5 8.37-1.2 11.14a129.3 129.3 0 01-6.19-13.81 53.58 53.58 0 00-10.46-17.64 24.8 24.8 0 00-4.58-4.1 3.64 3.64 0 00-5.12.57 2.77 2.77 0 00-.31.45 22.66 22.66 0 00-3.48 6.66c-2 7.53-4 15.09-5.1 22.77-1.17 8.61-1.36 17.36-1.8 26.06a55 55 0 005.33 26.74c4.39 9.16 7.43 18.73 10.28 28.41 1.3 4.38 2.46 8.83 3.44 13.29.44 1.94 1 4-.62 6.72-3.15-1.89-3.9-4.9-5.06-7.5-3.57-8-5.54-16.5-7.64-25a198.21 198.21 0 00-8.52-27.56 91 91 0 01-4.57-13.67 68.18 68.18 0 00-10.1-22.44 53.5 53.5 0 00-5.63-6.92c-1.76-1.9-4-1.58-5.08.64a25.38 25.38 0 00-1.83 5.14c-2.37 9.57-4.46 19.21-7 28.72a98.72 98.72 0 00-3.74 25.1c-.11 17.15 2.44 33.75 10.08 49.4 3 6.22 5.58 12.7 8.15 19.17h22.2c-3.67-11.54-7.38-26.45-9.62-33 0-.44-6.18-19.38-7.46-22.95a81.45 81.45 0 01-1.53-8.57c.26-.06.51-.11.77-.15 0 .73 3.29 8.81 3.34 9.54 2.78 4.27 10.83 31.83 12 36.7 1.53 6.2 2.73 12.49 5.26 18.39h25.1l1.17-1.83c6.25-9.87 12.21-19.92 18.56-29.73 6.75-10.43 12.13-21.6 17.47-32.74 6.51-13.63 14-26.79 19.49-40.95 2.72-7 6.34-13.72 9.6-20.55a18.19 18.19 0 011.46-2.23l1.34.23a16.59 16.59 0 01-.3 3.85 112.47 112.47 0 01-4 11c-6.73 15-13.59 30.07-20.45 45.08-5.13 11.25-10 22.67-15.62 33.66a241.15 241.15 0 01-14.93 24.7c-2.1 3.12-4.07 6.33-6 9.53h73.93l.4-.22c1.51-.82 3.08-2.06 5-.95a5.12 5.12 0 01.2 1.17h64.8a3.22 3.22 0 00-1.36-2.65 5.83 5.83 0 00-1.15-.75c-9.42-4.37-19.18-7.57-29.6-8.33-4.36-.32-8.7-.47-13-.73-12.93-.82-25.68.8-38.3 3.15-8.33 1.54-16.48 4-24.77 5.77a102.51 102.51 0 01-13 1.42 2.83 2.83 0 01-3.12-2.17 3.22 3.22 0 011.48-3.57 15.87 15.87 0 014.9-2.36c4.24-.91 8.55-1.53 12.85-2.14s8.63-1.1 12.94-1.67c3.17-.43 6.34-1 9.53-1.36 5.92-.64 11.86-1.08 17.77-1.77a82.2 82.2 0 0023.3-5.79c11.24-4.87 21.44-11.62 29.25-21.21 5.49-6.74 10.16-14.12 15.12-21.27a17.36 17.36 0 002-4.33 3.2 3.2 0 00-1.61-4.1zm-77.39-61.67c.93-4.64 2.61-6.53 7.1-7.94-1.09 5.15-2.27 6.47-7.1 7.94zm4.92-27.85a18.69 18.69 0 01-3.36 10.28c-.19.3-3.92 7.52-4.1 7.37-.46-.35-1.1-1-1-1.42.41-3.31 5.04-13.05 8.46-16.23zM1060.2 299.33c-.08.18-1 .28-1.28.08a12.45 12.45 0 01-1.82-1.88c.2-.66-8.08-10.8-2.13-9.38.92.68 4.79 8.36 5.49 9.21.3.35-.02 1.35-.26 1.97zm13.36 35.7c0 .53-1 1.69-1.49 1.67-2.21-.09-10.42-8.78-10.63-10.8 0-.36.4-.75.62-1.13a2.8 2.8 0 01.64-.2c2.52.14 10.65 8.28 10.86 10.43zm2.16-39.43c-2.91-6.28-2.59-12.46.74-19.46 2 1.26 2.3 3.28 2.5 5.24.39 3.48-1.14 10.26-3.24 14.22zm11.54 32c-2.2-.67-1.91-2.21-2-3.47-.27-5 0-6.38 1.82-10.09 1.29 4.91 2.69 9.16.15 13.56zm24.55-95.68c.32.28.93.54.93.81v12.81a15.2 15.2 0 01-.66 3c-2-.1-2.18-1.3-2.34-2.36a29.56 29.56 0 012.07-14.3zm-16.46 25.62c-1.87-3.14-3.56-6.39-5.33-9.6.51-.39 1-.77 1.54-1.16a22.36 22.36 0 016.83 10.8c-1.39 1.64-2.47.87-3.04-.08zm8.67 29.23c-.33.06-.71.24-.88.13a18 18 0 01-6-7.94c-.38-.92-.1-1.77 1.13-2.41 2.44 1.7 3.73 4.32 5.09 6.84.56.99 1.4 2.06.64 3.34zm8.08 4.88a1.51 1.51 0 01-2-.58 1.43 1.43 0 01-.15-.39 47.91 47.91 0 01-2.25-7.19c-2.43-12.59-4.75-25.21-7.06-37.83-.65-3.61-1.16-7.23-1.62-10.87a19.29 19.29 0 01.45-3.71c2.41 1.84 2.5 4 2.91 5.88 1.31 5.82 2.54 11.64 3.77 17.47q3.33 15.81 6.59 31.62a19.19 19.19 0 01.5 4.06 2.19 2.19 0 01-1.14 1.5zm6.87-9.47c-1.73-6-1.73-6-.08-10.37 2.11 3.64 2.17 5.11.11 10.33zm12.49-13.18a4.42 4.42 0 01-.58 1.94 2.64 2.64 0 01-1.53.93c-.3.06-.78-.41-1.15-.7a1.24 1.24 0 01-.39-.61c-1-3.21.09-6.41-1-12.09-1.45-7.85-4.86-18.2-4.12-19.71 1.33 1.4 4.06 8.86 4.3 9.37 3.3 8.49 4.81 13.87 4.47 20.87zm0-46.6c-1 1.42-2.94-1.12-3.51-2a12.83 12.83 0 01-1.07-5.11 17.2 17.2 0 013.31 2.71c.25.28 2.57 3.59 1.28 4.38zm13.13 38.87a1.58 1.58 0 01-1.15.6 1.41 1.41 0 01-1.11-.59 7.83 7.83 0 01-.77-2.59q-1.15-14-2.15-28.09c-.08-1.17-2-10.57-2.53-17.79-.43-5.12.19-8.58.77-9.65.39.61 1.08 6.45 2 12s2 10.64 2 10.85q1.83 14.3 3.6 28.62c.26 2.19.75 4.53-.65 6.62zm5.17-52.64a11.24 11.24 0 01-1.69 10c-1.13-5.63-1.07-6.12 1.7-10.02zm2.88 25.75a9.32 9.32 0 01-4.88 5.23c-.4-.37-.71-.55-.7-.68a10.46 10.46 0 014-6.56 1.18 1.18 0 011-.13 1.6 1.6 0 01.59 2.12zm59.37 24.9a44.2 44.2 0 01-6 3.1c-2 .78-4.17 1.75-7.7.31 4.9-3 9-4.58 13.53-5 .07.79.27 1.51.12 1.6zm-8.22-23.92c-.12 4.36-4.21 10.14-9.5 13 2.03-5 5.53-8.88 9.51-13.02zm-20.11 14.55c-.35 3.68-1.67 5.07-4.33 6.36.18-3.02 1.31-4.57 4.34-6.38zm-5.35-44.81c-.71-2.82-1.46-5.64-2-8.49-.34-1.86-.94-3.82.91-6.76 2.34 5.66 3.42 10.4 2.42 15.55-.66-.17-1.28-.17-1.32-.32zm9.15 53.6c1.65-.78 12.73-6.16 14.23-7.15a73.19 73.19 0 0014.69-12.09c.55-.61 1.45-.93 3.48-2.16-.12 2.29 0 3.41-.25 4.39-.84 2.74-2.93 4.58-5.26 6-5 3.08-16.5 9.9-21.38 12-1.8.86-17.5 4.75-18.23 4.94-.85-1.37 11.64-5.43 12.73-5.95zM1174 271.58a21.39 21.39 0 0112.27-1.36c.37.06.9.56.86.84a2.68 2.68 0 01-.83 1.48 4.57 4.57 0 01-1.75.8 17.17 17.17 0 01-11-.56c.2-.68.23-1.13.45-1.2zm39.62 12.72c-1.29 4.47-2.69 6.61-6 9.31-1 .8-2 1.94-3.91.56 1.92-4.37 5.59-6.93 9.88-9.87zm-25.28 8.27c.23.79.58 1.43.44 1.56-2.47 2.32-4.92 4.68-7.55 6.81-1.7 1.39-3.37 3.1-7.4 2.88 4.41-5.61 8.66-9.37 14.48-11.25zm-9.53 26.36a2.78 2.78 0 01-1.21-.58c-.44-.47-1-1.08-1-1.63a2.19 2.19 0 011-1.59 6.64 6.64 0 015.92-.25c2.14.76 4.26 1.6 6.4 2.4.19-.3 2.2 1.41 3.38 2.28a33.68 33.68 0 01-14.52-.63zm42.21-7.57a55.7 55.7 0 01-8.17.12c-1.74-.11-3.7-.19-5.41-2.85 4.38-1.95 8.46-1.5 12.49-1.12 1.48.12 3.32.07 3.95 2.6a9.61 9.61 0 01-2.86 1.25zm2-13.35a43.78 43.78 0 01-6.28 2.75c-11.08 3.66-22.17 7.35-33.33 10.74-7.23 2.19-14.59 3.93-21.92 5.78a29.83 29.83 0 01-6.09.81c-.74 0-2-.71-2.14-1.25a4.19 4.19 0 01.81-3 6 6 0 013-1.56 26.92 26.92 0 014.73-.74c16.34-1.39 31.91-5.85 47.15-11.64 4.07-1.53 8.11-3.15 12.21-4.62a21.54 21.54 0 013.83-.62c.2.44.38.88.57 1.32A14 14 0 011223 298zM1403.94 296.77c-13.8.76-35.11 2.18-40.49 2.4-1.57-1.5-.87-1.9.08-2.1 7.53-1.65 10.42-1.93 17.33-5.33 5.59-2.75 12.32-5.64 16.79-9.9 2.3-2.19 6-8.77 7.57-11.57 2.68-4.65 3.71-6.86 4.67-10.89.71-3 .24-4.09-3.39-4.24a15.39 15.39 0 00-3.83.33 42.11 42.11 0 00-4.93 1.43c-9.92 3.56-18.77 9.14-27.22 15.25a51.66 51.66 0 00-14.4 15.69c-.79 1.33-1.18 1.53-2 2.75-1 .05-.84.25-1.55.23a2.47 2.47 0 01-.78-.34 4 4 0 01.34-3 116 116 0 006.46-33.49c.15-3.74 0-7.42-1.47-11-1-2.22-.94-4.38-1.88-6.63a12.71 12.71 0 00-1.2-1.79 11.46 11.46 0 00-1.56 1.13 67.54 67.54 0 00-9.24 12.83 39.43 39.43 0 00-4.52 18.15c-.21 6.83-.1 13.71 3.25 20 .22.42-.22 1.2-.4 2-1.35-.5-2.43-.85-3.46-1.28-5.88-2.43-12-5.88-16.41-10.5a31.07 31.07 0 00-10.11-7.08c-3.93-1.7-7.88-3.42-11.93-4.76a20.52 20.52 0 00-15.6.62c.88 1.07 1.42 1.71 1.93 2.35 1.44 1.78 2.85 3.57 4.3 5.32s2.68 3.36 4.2 4.86a77.24 77.24 0 0012.66 10.21c5.91 3.76 12 7.07 19 8.6a90.5 90.5 0 019.79 3.11 1.55 1.55 0 01.79 1.24c-.1.44-.75.75-1.16 1.08a.88.88 0 01-.42.08c-5.84.37-11.67 1-17.51 1-10.48 0-20.37 2.5-30 6.14a31.79 31.79 0 00-4.27 2c-1.35.75-3 1.42-3 3.3 0 2.1 1.63 2.92 3.22 3.56 5.58 2.24 9.66 2.05 15.49 3.45 4.62 1.12 17.56-.83 22.55-2.34 7.27-2.3 7.46-4.15 16.71-9.28.61-.33 2.7-1.87 4.35-1.9.84 1.22.2 2.09.11 3.6 0 .11 0 .25-.06.35-2.22 3.62-7.71 12.42-10.67 17.2-1.87 3-5.91 9.17-10.85 16.3h5.2c2.93-4.51 6.78-10.5 10.59-16.64a49.25 49.25 0 00-1.67 4.7c-1.12 4-2.33 8-3.53 11.94h20.71a44 44 0 002-11.25c0-.86.1-1.71.17-2.57.61-8 1.66-13.77.12-21.67-.14-.69-.29-1.41.48-2 .36.05 1-.1 1.14.2 2.27 4.85 2.09 3.8 4.56 8 3.49 5.87 6.52 9.33 10.09 15.2 1.63 2.68 4.33 5.58 6.27 8a39 39 0 006.17 6.08h17.17c-.46-2.68-1.06-5.26-1.4-6.7-.72-3-3-6.72-4.83-9.26a26 26 0 00-3-3.57c-3.39-3.27-5.47-6-9-9.15a47.08 47.08 0 00-12.26-8.3c-2.76-1.24-4.77-1.79-7.73-3.79-.53-.36-.7-1.07.51-1.85 1.12-.19 15.2 3.8 20.15 4.74 8.3 1.6 28.26 4.3 33.64 2.44s11-6.4 11-6.4-8.68-8.14-23.83-7.29zm-51.75 2.37a1.57 1.57 0 01-.64.66 8 8 0 01-2.76.91 2.66 2.66 0 01-2.7-2.61c0-.7 1.08-1.5 2.21-1.64.5 0 1-.06 1.49-.06.59.21 1.17.45 1.74.71a1.53 1.53 0 01.66 2.03zM1582.81 255.56a5.72 5.72 0 01-.59.17 2.53 2.53 0 00-.76.31c-1.32 1-4.82 4.06-8.19 7.06-3.19 2.84-6.5 5.77-7.73 6.68a5 5 0 00-.42.37 2.71 2.71 0 01-.4.35 71.37 71.37 0 01-7.6 4.35c-1.14.58-2.44 1.24-4.2 2.18-.43.24-2.87 1.38-4.13 1.9a58 58 0 004.65-11.71 12.58 12.58 0 01.61-1.58l.2-.46a15.34 15.34 0 001-4.16c.2-2.06.5-4.15.76-6.17.16-1.08.3-2.16.44-3.25 0-.41.13-1.7.2-2.84 0-.67.08-1.25.1-1.5.23-3.07.41-5 .52-6.35.23-2.56.23-2.56-.08-3l-.37-.58-.28.62c-.22.49-.79 4-1.51 8.57-.27 1.66-.52 3.23-.56 3.4-.34 1.16-.68 2.32-1 3.48-.65 2.3-1.33 4.68-2.08 7-1.1 3.38-2.33 6.66-3.51 9.71-.56 1.45-1.22 2.89-1.87 4.29l-.32.7a9.73 9.73 0 01-.43-1.36c-.17-1-.35-1.8-.56-2.7s-.45-2-.69-3.37c-.42-1.5-.74-2.7-1-3.76a72.12 72.12 0 00-2.12-7l-.48-1.27c-.33-.86-.66-1.76-.92-2.65-.11-.38-.36-1.45-.66-2.7a70.51 70.51 0 00-1.9-7.16l-.1-.2h-.23a1.2 1.2 0 00-.95.35 1.24 1.24 0 00-.22 1c.13.89.45 2.94.82 5.17.48 3.07 1 6.55 1.18 7.77.18 1.52.38 3 .58 4.56.5 3.68 1 7.48 1.14 11.24a65.66 65.66 0 01-1.64 16.83 5 5 0 01-.87 1.87c-2.25 3.06-3.32 4.44-5.46 7.21l-.52.69-.06.07c-.15-.25-.39-.75-.45-.87a25.93 25.93 0 00-1-3.47c-.35-1-.73-2.14-1.17-3.77a83 83 0 01-3.44-10.3c-.27-1-.57-2.08-1-3.36-.73-2.5-1.39-5.07-2-7.56l-.84-3.23c-.18-.7-.55-2.58-1-4.75-1.71-8.62-1.82-8.75-2.29-8.75h-.33v5.64c-.09.44.11 4.44.15 4.79.24 2 .44 3.6.64 5.2s.4 3.26.64 5.32c.56 4.68 1.13 9.52 1.63 14.42.22 2.15.4 4.34.57 6.45.14 1.65.27 3.3.42 4.95.19 2 .41 3.93.64 5.84l.15 1.4a3.37 3.37 0 01-1 3l-5.5 5.63q-3.23 3.32-6.47 6.62a9.12 9.12 0 01-.88-2.49c-.42-2.54-.94-4.67-1.49-6.91-.44-1.76-.88-3.59-1.28-5.63-.5-2.58-.95-5-1.38-7.41-.72-3.92-1.4-7.62-2.29-11.8-.51-2.47-.75-4.06-1.07-6.25l-.08-.47a26 26 0 00-.64-2.88c-.22-.86-.45-1.74-.58-2.56l-.11-.68c-.51-3.35-1.1-6.87-1.5-7.54l-.16-.26-.28.1c-1.62.6-.43 19.92-.41 20.11.78 10.06 1.35 18.51 1.65 27.06q.12 3.64.26 7.29l.17 4.43v3.13a1.69 1.69 0 00-.32.55l-.23.14c-3.32 1.94-6.1 3.51-8.76 4.95l-1.11.6c-.11 0-.33.16-.85.44a1 1 0 000-.17v-.39c0-.44-.06-5.46 0-5.94-.06-4.08-.14-5.87-.22-8.15-.06-1.54-.13-3.3-.21-6.13-.09-4.06-.33-7.33-.58-10.79-.21-2.84-.43-5.77-.55-9.18 0-.66-.13-1.58-.23-2.4 0-.35-.08-.69-.11-1a30.44 30.44 0 00-.66-4.26l-.16-.73-.48.57a5 5 0 00-.53 1.94 8.08 8.08 0 01-.19 1 14.18 14.18 0 00-.71 2.49c-.18.92-.29 1.84-.42 2.79-.22 1.79-.45 3.58-.67 5.37-.46 3.6-.92 7.33-1.42 11-.35 2.47-.77 5-1.18 7.38-.24 1.4-.48 2.8-.7 4.2l-.59 3.72c-.66 4.12-1.35 8.38-2 12.57a2.58 2.58 0 01-1.74 2.16c-1.34.61-2.67 1.24-4 1.87l-2.16 1-1.51.7h11.17a1.51 1.51 0 01.6 0h41.88l-3.38-.73c-3.22-.7-6.55-1.42-9.8-2.16-1.52-.35-3.07-.78-4.57-1.2s-3.32-.91-5-1.28c-2.07-.46-4.14-1.11-6.17-1.75h-.11l-.55-.17c.67-.37.83-.44 1-.51s.34-.17 1.51-.83l1.15-.63c1.64-.9 3.33-1.83 4.93-2.85a17.13 17.13 0 019.43-2.86h.56c3.31-.24 6.59-.71 9.34-1.13 5.56-.71 7.5-1 11.77-1.83l1.42-.24a39.33 39.33 0 004.45-.88c3.57-.87 5.32-1.42 7.35-2.05l1.81-.56a138.17 138.17 0 0013.6-4.55c2.56-.93 2.68-1.27 2.57-1.6-.08-.55-.51-.83-1.27-.83a10.71 10.71 0 00-1.26.11l-.66.08c-2 .36-3.89.68-5.85 1s-4.23.7-6.37 1.1c-5.07.91-9.24 1.49-13.65 2.1-2.48.35-5 .7-7.8 1.12a56.26 56.26 0 01-8.59.64l-.64.06c-1.15.1-2 .16-2.32.14.13-.18.36-.44.58-.7s.47-.53.73-.84q2.64-2.69 5.34-5.32l2.39-2.38c1-1.55 2.57-3.49 4.28-4l3-.86c2.63-.72 5.33-1.47 8-2.31 4.66-1.5 9.21-3.1 13.49-4.62 1.28-.46 5.12-1.87 6.42-2.4 1.85-.75 3.3-1.3 4.75-1.84s3-1.15 5-1.94c2.21-.9 5-2.12 7.25-3.18l.39-.18a30.5 30.5 0 003.08-1.54l.19-.15v-.23c-.06-.25-.27-.66-1.09-.66a5.71 5.71 0 00-1.83.4 13.65 13.65 0 01-1.86.55c-.5.13-1 .26-1.77.48-.35.15-2.2.61-2.81.76l-.24.06c-3.3.82-4.21 1.08-8.51 2.34-1.2.38-2.8.8-4.34 1.2l-2.74.74c-2 .55-3.14.78-4.39 1-1 .2-2 .4-3.57.78s-3.13.67-4.73.95c-1.12.2-2.24.4-3.41.65-1 .19-2 .33-3 .42a106.7 106.7 0 007.46-9.47 7.12 7.12 0 011.89-1.82c.75-.52 1.59-1 2.4-1.43l1.19-.67c.47-.28 1-.55 1.43-.82 1.06-.59 2.15-1.2 3.16-1.9 2.17-1.54 4.34-3.16 6.43-4.73l2.59-1.92.12-.1a2 2 0 00.35-.28 67.08 67.08 0 016.13-5.42c1.39-1.13 2.82-2.3 4.18-3.53s10.62-10.57 11.72-11.8a2 2 0 00.33-.84c0-.17.09-.35.15-.58l.22-.69zM1427.37 317.21l-.47.39c-.58.47-2.13 3.54-3.28 9.93a61.25 61.25 0 00-1.28 6.42c-.16 1-.33 2-.53 3.09-.36 2.33-.84 4.34-1.32 6.28-.21.88-.42 1.74-.62 2.62l-.1.45h6.28V346c.17-4.49.3-8.53.26-12.64a27.81 27.81 0 01.26-3.53c.11-1.05.23-2.13.24-3.14 0-.33.12-1.22.24-2.26a33.75 33.75 0 00.43-6.66zM1458.08 302.87l-.36.3c-.14.12-.36.3-1.9 7.11-.43 1.74-.85 3.49-1.26 5.23-.48 2-1 3.93-1.43 5.9q-1.29 5.31-2.6 10.62c-.66 2.71-1.33 5.41-2 8.12-.47 1.92-.92 3.85-1.39 5.78l-.11.46h7.74l.65-8.18.9-11.65c.18-2.32.69-6.37 1.17-10.29.45-3.73.93-7.58 1.12-9.8v-.1a5.39 5.39 0 00-.34-3.07zM264.43 229.4l.08-.17a3.79 3.79 0 01.2-.34 1.8 1.8 0 00.37-.94 17.12 17.12 0 00-.24-3.35c-.29-1.5-.75-1.88-2.38-2a32.7 32.7 0 01-6.5-1.82 2.29 2.29 0 01-.3-.72c-1.07-4.62-2.14-9.11-3-12.89-.26-1.09-.54-2.19-.8-3.28-.48-1.92-1-3.91-1.41-5.88-.59-2.73-1.16-5.53-1.71-8.23l-1-4.74v-.24c-.14-.65-.28-1.32-.47-2a10.3 10.3 0 00-.7-2 7.1 7.1 0 01-.22-.79 4 4 0 00-.54-1.5l-.42-.44-.08.6a22.21 22.21 0 00-.27 3.46v2.71c.11 2.72.11 5.05.12 7.31 0 2.81 0 5.46.2 8.75.1 2.23.15 3.63.2 4.86.06 1.84.11 3.29.32 6.63.05.3.27 3.15.33 4.32-2-.88-3.66-1.7-5-2.4a23.53 23.53 0 01-3-2c-.39-.3-.78-.6-1.17-.88-.85-.61-1.71-1.27-2.63-2a5 5 0 01-1.45-1.63 10 10 0 01.43-3.3c1.19-5.61 2.58-12.14 4-18.56.14-.67.32-1.33.49-2 .23-.89.47-1.82.64-2.75.46-2.46.82-4.9 1.21-7.61v-.14c1.05-5.58.94-5.79.87-5.93l-.1-.28-.19.11a.32.32 0 00-.24-.11.41.41 0 00-.32.18 45.16 45.16 0 00-1.79 4.92c-.31.91-.6 1.77-.65 1.9q-3.08 7.34-6.12 14.68-1.22 3-2.42 5.91l-2.24 5.48a7.78 7.78 0 01-.5.89l-.23.38-1.51-1.46a43.66 43.66 0 01-4.82-5.17c-.41-.55-.85-1.18-1.29-1.88a1.83 1.83 0 01-.12-1.91c.37-.77.71-1.56 1.05-2.35a37 37 0 012-4.12 127.12 127.12 0 007.39-15.55l1.2-2.82c.45-1 .84-2.12 1.22-3.16.49-1.32 1-2.69 1.6-4a20.91 20.91 0 001.25-3.83c.15-.53.28-1.06.44-1.59 0-.06.14-.41.32-.91 1.46-4.13 1.43-4.17 1.35-4.34a1.29 1.29 0 00-.6-.68h-.12c-.26 0-.34 0-2.8 4.5l-.54 1-.67 1c-.88 1.36-1.8 2.76-2.65 4.18s-1.72 2.94-2.58 4.41c-1.26 2.19-2.56 4.45-3.92 6.63-2.43 3.93-5 7.86-7.48 11.66l-1.6 2.45c-.45-.9-1.6-3.93-3.73-10.22a2.28 2.28 0 01.48-2.15l2-2.81c.67-.93 1.36-1.86 2-2.8l2.8-3.87c2.14-2.95 4.34-6 6.47-9 1.28-1.85 2.55-3.75 3.77-5.59q1.32-2 2.67-4c.35-.53.77-1.05 1.17-1.54s.57-.72.84-1.09a1.1 1.1 0 00.27-.87 1.21 1.21 0 00-.66-.69l-.19-.13-.17.16c-.19.17-.39.34-.6.5s-.59.49-.87.77a8.07 8.07 0 00-.78.87c-.26.3-.49.57-.76.83l-4.31 4-4.32 4-3.07 3c-1.19 1.16-2.38 2.32-3.59 3.45-.38.35-.81.77-1.29 1.23-1.43 1.38-4 3.89-4.78 4.14-.58-3.38-1.09-6.49-1.55-9.49v-.13a3.2 3.2 0 01-.09-.62v-.7c-.06-.85-.06-.85.74-1.61l.64-.6c2.28-2.77 5.6-6.76 8-9.4 1.67-1.82 3.26-3.76 4.79-5.65 1.76-2.16 3.59-4.39 5.54-6.43.1-.11.41-.53 1-1.32.7-1 1.58-2.16 2.08-2.76.28-.34.53-.68.76-1l.31-.44.44-.57c2.1-2.7 2.82-3.83 2.73-4.32a.42.42 0 00-.2-.3H231.25c-.69.15-2.54 1.91-4.71 4-.53.51-1 .92-1.12 1.07-.6.5-1.18 1-1.73 1.56-.37.34-.75.69-1.14 1l-1 .89c-1.05.95-2.13 1.93-3.24 2.84l-3.29 2.69c-2.91 2.35-5.91 4.78-8.67 7.43a12.22 12.22 0 01-1.56 1.23.79.79 0 01-.3.12c-.05-3.73-.1-7.71-.11-11.58 0-.33.45-1 1.6-1.75l1.5-1.25c1.56-1.31 2.8-2.34 4.69-3.75a19.26 19.26 0 012.73-2.29c2.45-2 4.71-4.07 6.9-6.11 1.25-1.16 2.44-2.26 3.65-3.34a47.56 47.56 0 004.37-4.61c.94-1.08 1.91-2.2 2.91-3.22l.78-.76c.41-.4.84-.8 1.22-1.24a.85.85 0 00.23-.8 1.09 1.09 0 00-.77-.7h-.14l-.13.08c-1.36 1-2.83 1.88-4.25 2.76l-1.47.92c-1.61 1-3.19 2.13-4.73 3.22s-3.05 2.16-4.62 3.15l-.75.46c-.77.47-1.55 1-2.29 1.5-1 .71-2 1.36-2.94 2s-2.27 1.47-3.37 2.31c-.68.51-1.34 1-2 1.56s-1.36 1.07-2.05 1.59q-.25.19-.51.36c.22-2 .41-3.65.63-5.48l.27-2.31a2.29 2.29 0 01.91-1.51c2-1.69 3.72-3.24 5.4-4.75.51-.48 1-1 1.46-1.5l.69-.73.93-1c.74-.77 1.5-1.57 2.28-2.32 1.09-1 2.2-2.06 3.31-3.08 1.26-1.16 2.55-2.37 3.81-3.57s2.46-2.46 3.63-3.68l1.41-1.45c1.48-1.52 3.41-3.53 5.33-5.56.07-.08.5-.47.95-.89a28.27 28.27 0 003.1-3.09l.13-.26-.25-.14a.8.8 0 00-.41-.09c-.92 0-2.81 1.19-4.2 2.17a34 34 0 00-4.41 2.92 94.55 94.55 0 01-8 5.92c-1.68 1.08-3.33 2.26-4.92 3.41-1.1.78-2.19 1.56-3.3 2.32-.64.43-1.25.86-1.86 1.29-1.1.77-2.14 1.5-3.27 2.23a43.46 43.46 0 011.49-5.62 2.37 2.37 0 011-1.18 26.88 26.88 0 004.12-3.17c.81-.71 1.64-1.45 2.52-2.1 1.84-1.36 3.56-2.92 5.23-4.42s3.21-2.9 4.93-4.2c2.74-2.07 5.4-4.32 8-6.49l2.93-2.46a.7.7 0 00.18-.5.86.86 0 010-.16v-.15l-.11-.11a1.37 1.37 0 00-1-.42 2.39 2.39 0 00-1.1.36l-.14.06c-1.15.56-2.3 1.17-3.41 1.75l-1.84 1-3.8 1.94c-2.57 1.31-5.23 2.66-7.82 4-1.16.6-2.29 1.26-3.4 1.9l-1.61.93a12.91 12.91 0 011.65-4.18l.13-.26c1.74-3.29 3.46-6.51 5.29-9.65a34.32 34.32 0 017.2-9.3 5.08 5.08 0 00.63-.68l.44-.51.41-.46h-.61c-.23 0-.43 0-.6-.06a3 3 0 00-.43 0 .67.67 0 00-.41.11l-.68.45a23 23 0 00-2.87 2.14 68.78 68.78 0 00-7.79 8.91 58.51 58.51 0 00-6 10.12c-.13-.25-.32-.65-.57-1.16l-2.73-6.1c-1.17-2.68-2.36-5.35-3.55-8a.89.89 0 00-.81-.59 1.38 1.38 0 00-.8.32l-.16.12.25 1.11c.17.8.35 1.63.5 2.46.44 2.5.82 5.06 1.19 7.53a152.61 152.61 0 002.92 15.75.57.57 0 010 .18 1.65 1.65 0 00.06.32 10.61 10.61 0 01-.21 5.91l-.42 1.6c-.31 1.2-.56 2.2-1 3.64a5 5 0 01-.38-.52l-.43-.64c-1-1.53-2.08-3.12-2.95-4.76-1.14-2.09-2.43-4.13-3.68-6.1a73.51 73.51 0 01-4.87-8.48s-3-5.81-4-5.81h-.19l-.08.13c-.4.64 2.06 6.64 2.09 6.7.09.22 1.16 3.08 1.25 3.34l.56 1.64c.66 1.94 1 3 1.81 5a114.28 114.28 0 004.45 11.39c.42 1 .86 2 1.3 3.07s.86 2.23 1.25 3.33c.23.65.46 1.31.7 2a7.06 7.06 0 01.41 3.38c-.22 1.61-.45 3.55-.62 5-.07.66-.14 1.23-.19 1.62l-.73-.5c-.7-.48-1.3-.89-2.08-1.36l-3.91-2.29c-2-1.15-4-2.35-6-3.58-1.39-.87-2.86-1.66-4.27-2.42a51.83 51.83 0 01-6.31-3.81 4.79 4.79 0 00-.78-.4 1.37 1.37 0 00-.49-.13.81.81 0 00-.73.59l-.08.18.13.14.3.34a9.84 9.84 0 00.7.76l.75.76c1.3 1.3 2.65 2.64 4 3.92s2.5 2.3 3.76 3.44 2.8 2.55 4.19 3.85 2.77 2.63 4.15 4c1.8 1.73 3.66 3.52 5.53 5.23a3.15 3.15 0 011.1 2.47c0 1.2.05 2.39.08 3.59 0 2.05.09 4.1.11 6.17a2.07 2.07 0 010 .7h-.15c-1-.32-2-.75-2.84-1.1-2.92-1.24-5.82-2.49-8.73-3.75-1.27-.55-2.54-1.12-3.8-1.69l-2-.91-.88-.39-.76-.35-3.29-1.36a55.61 55.61 0 01-8.79-4.16l-1-.72c-1.08-.74-1.87-1.27-2.11-1.38H167c-.55.07-.88.29-1 .63-.21.77.94 1.78 2.15 2.75a4.21 4.21 0 01.36.3 21.38 21.38 0 002.61 2.12c2.25 1.58 4.51 3.14 6.77 4.7l3.78 2.6 2.81 2c1.78 1.24 3.61 2.5 5.42 3.73 1 .65 2 1.28 2.92 1.89 1.31.83 2.67 1.69 3.95 2.6a32.37 32.37 0 005 3.1c0 .4 0 .8.05 1.2 0 1.06.09 2.15.24 3.22.35 2.58.66 4.52 1 6.76l.33 2s-.13.18-1.16.18c-.68 0-1.47-.07-2.25-.13l-1.22-.1c-1.74-.1-3.49-.22-5.23-.34l-2.71-.18-3-.2c-2-.13-4-.25-5.93-.41l-2.53-.2c-1.53-.14-3.1-.28-4.67-.32a35 35 0 01-6-.67l-.39-.09a3.36 3.36 0 00-.84-.14h-.1c-.12 0-.8-.16-1.39-.31a18.16 18.16 0 00-2.83-.56.56.56 0 00-.41.14 1.45 1.45 0 00-.26.85 3.35 3.35 0 01-.08.54l-.06.28.27.08c.56.17 2 .64 3.32 1.1s2.76.93 3.3 1.09l1.68.45c1.23.33 2.5.68 3.74 1.06s2.47.8 3.7 1.2c1.83.6 3.7 1.23 5.59 1.78 1.07.32 2.18.56 3.25.79s2 .43 3 .71l1.55.45a106.27 106.27 0 0011.66 2.92l.86.2c.28.08.58.16.88.22a1.79 1.79 0 011.44 1.23c.29.77.53 1.6.76 2.4s.52 1.75.83 2.57a19.85 19.85 0 01.7 2.27 22.68 22.68 0 00.7 2.26l.25.64a6.64 6.64 0 01.26.66h-.18l-3.19.25c-2.18.18-4.06.33-6.71.4-2.46.06-4.93 0-7.38 0H186a54.47 54.47 0 01-8.56-.56 10.44 10.44 0 00-1.47-.14h-.46c-.31 0-1.25-.06-2.34-.14-1.62-.1-3.62-.24-4.63-.24a1.66 1.66 0 00-.73.08 1 1 0 00-.41.51l-.16.3-.19.32.35.12c.51.17 3.71.71 7.09 1.28l1.15.19c2 .33 4 .63 5.91.91l1.21.18c.43.07.86.12 1.3.17s1.16.13 1.74.24l10.59 1.63 17.46 3.18a3.4 3.4 0 012.22 1.19c.89 1.07 1.82 2.14 2.73 3.18.76.88 1.54 1.76 2.29 2.66a15 15 0 011.09 1.4l.3.41a2.72 2.72 0 01-1 .36h-.23l-5.93 1-4 .68-2 .35c-1.4.24-2.85.5-4.28.68-2.18.27-4.4.48-6.55.7l-3.9.4c-1.16.12-7 .76-7.25 1.49a.37.37 0 00.06.38l.09.11h.14l6.52-.07c.75 0 1.49 0 2.24-.06a40.36 40.36 0 014.4 0c7.16.56 14.3.85 21.23.85h3.6a10.59 10.59 0 001.38 0l.74-.07a8.26 8.26 0 011-.06 1.92 1.92 0 011.64.7 36.46 36.46 0 003 2.87c.87.77 1.77 1.53 2.65 2.27l1.67 1.42c1.43 1 3 2 4.7 3.11-1.3.52-2.63 1-4 1.43s-2.63.88-3.91 1.34-2.38.86-3.57 1.23c-2.72.84-5.66 1.74-9 2.72l-1.26.41c-.9.3-2.14.72-2.52.8-4.81 1.47-7.71 2.36-8.71 2.53 0 0-4 1-4 1.59 0 .35.25.4 1.81.4h1.88a17.33 17.33 0 002.49-.14c.54-.07 1.1-.14 1.68-.16 2.27-.18 5-.59 7.6-1 1.9-.28 3.7-.55 5.33-.75 5.8-.91 10.57-1.83 17.34-3.21 1.21-.31 2.4-.59 3.6-.87 1.52-.35 3.08-.71 4.75-1.17 2.68 1.24 4.83 2.08 6.18 2.57a18.38 18.38 0 006.11 1.45z"/></g></g></svg>